<svg width="18" height="18" viewBox="0 0 18 18" fill="none" xmlns="http://www.w3.org/2000/svg">
<circle cx="9" cy="9" r="9" fill="#26D07C"/>
<path fill-rule="evenodd" clip-rule="evenodd" d="M12.6588 9.99978C12.2402 11.6086 10.8363 12.7451 9.24025 12.7451C7.64421 12.7451 6.24028 11.6086 5.82167 9.99978H4.53613C4.9808 12.2821 6.91793 14 9.24025 14C11.5626 14 13.4997 12.2821 13.9444 9.99978H12.6588ZM5.82179 7.99978C6.24054 6.39124 7.64435 5.2549 9.24025 5.2549C10.8362 5.2549 12.24 6.39124 12.6587 7.99978H13.9443C13.4995 5.71765 11.5624 4 9.24025 4C6.91808 4 4.98105 5.71765 4.53622 7.99978H5.82179Z" fill="white"/>
<line y1="-0.627451" x2="3.04873" y2="-0.627451" transform="matrix(0.944676 0.328006 -0.304781 0.952422 10.6799 7.5)" stroke="white" stroke-width="1.2549"/>
<line y1="-0.627451" x2="3.04441" y2="-0.627451" transform="matrix(-0.963491 -0.267741 0.248103 -0.968734 7.22388 9.81494)" stroke="white" stroke-width="1.2549"/>
<line y1="-0.627451" x2="2.88508" y2="-0.627451" transform="matrix(0.49913 -0.866527 0.848003 0.529991 13.5601 8.49976)" stroke="white" stroke-width="1.2549"/>
<line y1="-0.627451" x2="2.89107" y2="-0.627451" transform="matrix(-0.446521 0.894773 -0.879367 -0.476145 4.29102 8.99976)" stroke="white" stroke-width="1.2549"/>
</svg>
