<?xml version="1.0" encoding="utf-8"?>
<!-- Generator: Adobe Illustrator 26.2.1, SVG Export Plug-In . SVG Version: 6.00 Build 0)  -->
<svg version="1.1" id="圖層_1" xmlns="http://www.w3.org/2000/svg" xmlns:xlink="http://www.w3.org/1999/xlink" x="0px" y="0px"
	 viewBox="0 0 75 75" style="enable-background:new 0 0 75 75;" xml:space="preserve">
<style type="text/css">
	.st0{fill:#333333;}
</style>
<path class="st0" d="M40.6,9.4C25.1,9.4,12.5,22,12.5,37.5H3.1l12.2,12.2l0.2,0.4l12.6-12.6h-9.4c0-12.1,9.8-21.9,21.9-21.9
	c12.1,0,21.9,9.8,21.9,21.9s-9.8,21.9-21.9,21.9c-6,0-11.5-2.5-15.4-6.4l-4.4,4.4c5.1,5.1,12.1,8.2,19.9,8.2
	c15.5,0,28.1-12.6,28.1-28.1S56.2,9.4,40.6,9.4z M37.5,25v15.6l13.3,7.9l2.4-4l-11-6.5V25H37.5z"/>
</svg>
