<svg width="75" height="75" viewBox="0 0 75 75" fill="none" xmlns="http://www.w3.org/2000/svg">
<path d="M40.625 9.375C25.0938 9.375 12.5 21.9688 12.5 37.5H3.125L15.2813 49.6563L15.5 50.0938L28.125 37.5H18.75C18.75 25.4063 28.5313 15.625 40.625 15.625C52.7188 15.625 62.5 25.4063 62.5 37.5C62.5 49.5937 52.7188 59.375 40.625 59.375C34.5938 59.375 29.125 56.9063 25.1875 52.9375L20.75 57.375C25.8438 62.4688 32.8438 65.625 40.625 65.625C56.1563 65.625 68.75 53.0312 68.75 37.5C68.75 21.9688 56.1563 9.375 40.625 9.375ZM37.5 25V40.625L50.7813 48.5L53.1875 44.5L42.1875 37.9687V25H37.5Z" fill="white"/>
</svg>
