<svg width="10" height="10" viewBox="0 0 10 10" fill="none" xmlns="http://www.w3.org/2000/svg">
<path fill-rule="evenodd" clip-rule="evenodd" d="M5.75866 4.99994L9.14786 1.61075C9.2572 1.5014 9.2572 1.32411 9.14786 1.21477L8.78488 0.851785C8.67553 0.742439 8.49824 0.742439 8.3889 0.851785L4.9997 4.24098L1.6105 0.851785C1.50116 0.742439 1.32387 0.742439 1.21452 0.851785L0.851541 1.21477C0.742195 1.32411 0.742195 1.5014 0.851541 1.61075L4.24074 4.99994L0.851541 8.38914C0.742195 8.49849 0.742195 8.67577 0.851541 8.78512L1.21452 9.1481C1.32387 9.25745 1.50116 9.25745 1.6105 9.1481L4.9997 5.7589L8.3889 9.1481C8.49824 9.25745 8.67553 9.25745 8.78488 9.1481L9.14786 8.78512C9.2572 8.67577 9.2572 8.49849 9.14786 8.38914L5.75866 4.99994Z" fill="#666666"/>
</svg>
