<svg width="34" height="13" viewBox="0 0 34 13" fill="none" xmlns="http://www.w3.org/2000/svg">
<path d="M0.56 3.836V9.452C0.56 11.288 1.268 11.744 3.596 11.744C4.136 11.744 7.016 11.744 7.604 11.744C9.8 11.744 10.328 11.084 10.604 8.804C10.184 8.732 9.512 8.48 9.14 8.24C8.972 10.004 8.78 10.316 7.544 10.316C6.836 10.316 4.208 10.316 3.584 10.316C2.252 10.316 2.048 10.196 2.048 9.452V3.836H0.56ZM1.424 5.468V6.896H8.06V5.468H1.424ZM0.08 1.484V2.912H7.52V7.448H9.02V1.484H0.08ZM14.972 1.988V3.296H22.628V1.988H14.972ZM16.544 5.312H20.924V6.5H16.544V5.312ZM15.236 4.136V7.676H22.304V4.136H15.236ZM16.364 7.796L15.188 8.156C16.496 10.412 18.716 11.624 21.968 12.068C22.148 11.672 22.508 11.096 22.808 10.784C19.7 10.496 17.432 9.524 16.364 7.796ZM18.008 0.883999V6.356C18.008 8.324 17.696 10.16 14.468 10.88C14.78 11.18 15.2 11.756 15.368 12.08C18.812 11.048 19.424 8.816 19.424 6.368V0.883999H18.008ZM14.06 0.775999C13.412 2.492 12.296 4.196 11.156 5.276C11.396 5.624 11.78 6.416 11.9 6.752C13.268 5.396 14.588 3.248 15.404 1.208L14.06 0.775999ZM12.896 4.124V12.104H14.264V2.768L14.252 2.756L12.896 4.124ZM25.52 1.616V2.984H32.888V1.616H25.52ZM25.52 4.376V5.72H32.912V4.376H25.52ZM25.496 7.208V8.564H32.96V7.208H25.496ZM24.692 1.616V5.924C24.692 7.616 24.584 9.764 23.276 11.216C23.588 11.396 24.176 11.876 24.404 12.152C25.88 10.544 26.12 7.844 26.12 5.936V1.616H24.692ZM32.384 1.616V10.376C32.384 10.58 32.3 10.652 32.072 10.664C31.856 10.664 31.064 10.676 30.38 10.628C30.572 11 30.788 11.624 30.848 12.008C31.94 12.02 32.66 11.996 33.164 11.768C33.644 11.54 33.812 11.156 33.812 10.388V1.616H32.384ZM28.388 2.156V11.936H29.852V2.156H28.388Z" fill="white"/>
</svg>
