<svg width="73" height="62" viewBox="0 0 73 62" fill="none" xmlns="http://www.w3.org/2000/svg">
<rect x="1.23718" y="9.00933" width="34.8475" height="49.0784" rx="3.09517" transform="rotate(-12.359 1.23718 9.00933)" fill="#CCCCCC" stroke="#999999" stroke-width="1.23807"/>
<rect x="5.56152" y="12.6316" width="27.9536" height="40.6598" rx="3.09517" transform="rotate(-12.359 5.56152 12.6316)" fill="white"/>
<path d="M6.75814 18.0927L5.95901 14.4456C5.73948 13.4437 6.37371 12.4536 7.37559 12.2341L10.7744 11.4893M34.0639 12.1097L33.2648 8.46256C33.0453 7.46068 32.0551 6.82645 31.0532 7.04598L27.4061 7.84511M13.1764 47.3844L13.8667 50.5351C14.0862 51.5369 15.0764 52.1712 16.0783 51.9516L19.4771 51.2069M40.4821 41.4014L41.1725 44.552C41.392 45.5539 40.7578 46.544 39.7559 46.7635L36.1088 47.5627" stroke="#999999" stroke-width="1.23807"/>
<path fill-rule="evenodd" clip-rule="evenodd" d="M18.8553 25.5698L18.9732 25.5091C19.4491 25.2753 19.9738 25.1485 20.5668 25.0982L20.751 25.085C22.1005 25.0052 23.4262 25.3022 24.705 25.7174C24.7633 25.7446 25.8135 26.2196 26.9492 25.6773L27.0438 25.6322C28.1795 25.0936 29.3131 24.6317 30.8596 25.1172L30.9134 25.1346C32.498 25.6664 34.6064 27.8988 33.3731 31.4396L33.3316 31.5553C32.0501 35.0381 28.6407 35.8601 28.6407 35.8601C28.6185 35.8687 28.2984 35.9905 27.4517 36.1851L27.3687 36.2059C26.5574 36.4272 26.2925 37.0303 26.2925 37.0303L26.2912 37.0332C26.2639 37.0952 25.8053 38.1247 25.2969 38.6165L25.2528 38.6567C24.7631 39.0757 24.5986 38.2758 24.5984 38.2755L24.5835 38.1997C24.483 37.6671 24.4549 37.1016 23.9911 36.7413L23.9241 36.6934C23.5554 36.4502 23.0045 36.3966 22.577 36.4148L22.5618 36.415C22.1933 36.4133 19.0314 35.9723 17.5119 33.3623L17.4542 33.2612C16.278 31.1595 16.1185 28.2763 17.8124 26.4017C18.1364 26.0432 18.4807 25.7714 18.8553 25.5698Z" fill="#CCCCCC"/>
<mask id="mask0_3309_46757" style="mask-type:alpha" maskUnits="userSpaceOnUse" x="16" y="24" width="18" height="15">
<path fill-rule="evenodd" clip-rule="evenodd" d="M18.8553 25.5698L18.9732 25.5091C19.4491 25.2753 19.9738 25.1485 20.5668 25.0982L20.751 25.085C22.1005 25.0052 23.4262 25.3022 24.705 25.7174C24.7633 25.7446 25.8135 26.2196 26.9492 25.6773L27.0438 25.6322C28.1795 25.0936 29.3131 24.6317 30.8596 25.1172L30.9134 25.1346C32.498 25.6664 34.6064 27.8988 33.3731 31.4396L33.3316 31.5553C32.0501 35.0381 28.6407 35.8601 28.6407 35.8601C28.6185 35.8687 28.2984 35.9905 27.4517 36.1851L27.3687 36.2059C26.5574 36.4272 26.2925 37.0303 26.2925 37.0303L26.2912 37.0332C26.2639 37.0952 25.8053 38.1247 25.2969 38.6165L25.2528 38.6567C24.7631 39.0757 24.5986 38.2758 24.5984 38.2755L24.5835 38.1997C24.483 37.6671 24.4549 37.1016 23.9911 36.7413L23.9241 36.6934C23.5554 36.4502 23.0045 36.3966 22.577 36.4148L22.5618 36.415C22.1933 36.4133 19.0314 35.9723 17.5119 33.3623L17.4542 33.2612C16.278 31.1595 16.1185 28.2763 17.8124 26.4017C18.1364 26.0432 18.4807 25.7714 18.8553 25.5698Z" fill="white"/>
</mask>
<g mask="url(#mask0_3309_46757)">
<path opacity="0.0535974" fill-rule="evenodd" clip-rule="evenodd" d="M26.2606 24.7218C26.2606 24.7218 33.0812 28.4382 27.6301 36.4666C22.1789 44.495 38.5807 41.1412 38.5807 41.1412L37.6638 33.3121L36.5824 22.2582L31.8329 20.8242L26.2606 24.7218Z" fill="black"/>
</g>
<path fill-rule="evenodd" clip-rule="evenodd" d="M21.735 29.7284C21.9337 30.6353 21.3509 31.5334 20.4329 31.7345C19.5153 31.9356 18.6102 31.3635 18.4115 30.4567C18.2128 29.55 18.7958 28.6519 19.7134 28.4508C20.6314 28.2496 21.5363 28.8218 21.735 29.7284Z" fill="white"/>
<path fill-rule="evenodd" clip-rule="evenodd" d="M25.2194 29.7302C25.4181 30.6371 24.8353 31.5351 23.9173 31.7362C22.9997 31.9373 22.0946 31.3653 21.8959 30.4584C21.6972 29.5517 22.2802 28.6535 23.1978 28.4525C24.1158 28.2513 25.0207 28.8235 25.2194 29.7302Z" fill="white"/>
<path fill-rule="evenodd" clip-rule="evenodd" d="M21.0364 30.0719C21.1247 30.4748 20.8657 30.8741 20.4577 30.9635C20.0498 31.0528 19.6476 30.7985 19.5593 30.3956C19.471 29.9926 19.73 29.5934 20.1379 29.504C20.5459 29.4146 20.9481 29.669 21.0364 30.0719Z" fill="#999999"/>
<path fill-rule="evenodd" clip-rule="evenodd" d="M24.5179 30.0746C24.6061 30.4775 24.3471 30.8768 23.9391 30.9662C23.5313 31.0555 23.129 30.8012 23.0408 30.3983C22.9525 29.9953 23.2115 29.5961 23.6193 29.5067C24.0273 29.4173 24.4296 29.6717 24.5179 30.0746Z" fill="#999999"/>
<path fill-rule="evenodd" clip-rule="evenodd" d="M11.5846 21.1971L10.4397 23.0933L15.9447 25.6426L16.2509 25.0898L11.5846 21.1971Z" fill="#CCCCCC"/>
<path fill-rule="evenodd" clip-rule="evenodd" d="M11.1172 26.2706L11.0006 27.9667L14.8559 27.6334L14.9369 27.0648L11.1172 26.2706Z" fill="#CCCCCC"/>
<rect x="38.5835" y="2.95146" width="34.8475" height="49.0784" rx="3.09517" transform="rotate(18.0326 38.5835 2.95146)" fill="#CCCCCC" stroke="#999999" stroke-width="1.23807"/>
<rect x="40.4795" y="8.26294" width="27.9536" height="40.6598" rx="3.09517" transform="rotate(18.0326 40.4795 8.26294)" fill="white"/>
<path d="M38.7488 13.5791L39.9046 10.0288C40.2221 9.05355 41.2701 8.52032 42.2454 8.83782L45.554 9.91492M65.3294 22.2323L66.4851 18.6821C66.8026 17.7068 66.2694 16.6588 65.2941 16.3413L61.7439 15.1855M29.4662 42.0927L28.4678 45.1597C28.1503 46.135 28.6835 47.183 29.6588 47.5005L32.9674 48.5776M56.0468 50.746L55.0483 53.8129C54.7308 54.7882 53.6828 55.3214 52.7075 55.0039L49.1573 53.8482" stroke="#999999" stroke-width="1.23807"/>
<path fill-rule="evenodd" clip-rule="evenodd" d="M46.1633 25.4222L46.3038 25.43C46.8644 25.4714 47.4124 25.6369 47.9818 25.9091L48.1574 25.9958C49.4345 26.6467 50.4878 27.6295 51.4347 28.6954C51.4735 28.7515 52.1792 29.7494 53.5089 29.8625L53.6197 29.8721C54.9474 29.9887 56.2321 30.1744 57.3862 31.448L57.4261 31.4929C58.5902 32.8293 59.3211 36.0023 56.2936 38.5794L56.1935 38.663C53.153 41.1612 49.5935 40.084 49.5935 40.084C49.5686 40.08 49.2104 40.0197 48.3316 39.7434L48.2445 39.718C47.3837 39.4851 46.8179 39.8946 46.8179 39.8946L46.8152 39.8966C46.757 39.9386 45.7852 40.6344 45.0563 40.8114L44.9944 40.8245C44.3217 40.9451 44.6004 40.1251 44.6004 40.1248L44.6274 40.0475C44.8211 39.5064 45.0988 38.9741 44.8679 38.3957L44.8323 38.316C44.6255 37.8957 44.1504 37.5512 43.7496 37.3384L43.7356 37.3305C43.3995 37.1312 40.7439 35.0316 40.7542 31.8292L40.7557 31.7058C40.8073 29.1524 42.2082 26.4296 44.7631 25.6237C45.2518 25.4696 45.7126 25.4057 46.1633 25.4222Z" fill="#CCCCCC"/>
<mask id="mask1_3309_46757" style="mask-type:alpha" maskUnits="userSpaceOnUse" x="40" y="25" width="19" height="16">
<path fill-rule="evenodd" clip-rule="evenodd" d="M46.1633 25.4222L46.3038 25.43C46.8644 25.4714 47.4124 25.6369 47.9818 25.9091L48.1574 25.9958C49.4345 26.6467 50.4878 27.6295 51.4347 28.6954C51.4735 28.7515 52.1792 29.7494 53.5089 29.8625L53.6197 29.8721C54.9474 29.9887 56.2321 30.1744 57.3862 31.448L57.4261 31.4929C58.5902 32.8293 59.3211 36.0023 56.2936 38.5794L56.1935 38.663C53.153 41.1612 49.5935 40.084 49.5935 40.084C49.5686 40.08 49.2104 40.0197 48.3316 39.7434L48.2445 39.718C47.3837 39.4851 46.8179 39.8946 46.8179 39.8946L46.8152 39.8966C46.757 39.9386 45.7852 40.6344 45.0563 40.8114L44.9944 40.8245C44.3217 40.9451 44.6004 40.1251 44.6004 40.1248L44.6274 40.0475C44.8211 39.5064 45.0988 38.9741 44.8679 38.3957L44.8323 38.316C44.6255 37.8957 44.1504 37.5512 43.7496 37.3384L43.7356 37.3305C43.3995 37.1312 40.7439 35.0316 40.7542 31.8292L40.7557 31.7058C40.8073 29.1524 42.2082 26.4296 44.7631 25.6237C45.2518 25.4696 45.7126 25.4057 46.1633 25.4222Z" fill="white"/>
</mask>
<g mask="url(#mask1_3309_46757)">
<path opacity="0.0535974" fill-rule="evenodd" clip-rule="evenodd" d="M53.3917 28.6193C53.3917 28.6193 57.6367 35.6776 48.3437 40.0967C39.0507 44.5158 55.8523 50.247 55.8523 50.247L59.2136 42.5941L64.1544 31.9031L60.5795 28.0436L53.3917 28.6193Z" fill="black"/>
</g>
<path fill-rule="evenodd" clip-rule="evenodd" d="M46.5634 30.7688C46.2587 31.7049 45.2439 32.2138 44.2963 31.9053C43.3491 31.5969 42.8281 30.5881 43.1329 29.652C43.4375 28.7162 44.4526 28.2074 45.3997 28.5157C46.3473 28.8242 46.8681 29.833 46.5634 30.7688Z" fill="white"/>
<path fill-rule="evenodd" clip-rule="evenodd" d="M49.7489 32.6388C49.4442 33.5749 48.4294 34.0836 47.4818 33.7751C46.5347 33.4668 46.0136 32.4581 46.3184 31.522C46.6231 30.586 47.6381 30.0772 48.5853 30.3856C49.5329 30.694 50.0536 31.7029 49.7489 32.6388Z" fill="white"/>
<path fill-rule="evenodd" clip-rule="evenodd" d="M45.7394 30.7083C45.604 31.1242 45.153 31.3505 44.7318 31.2134C44.3108 31.0763 44.0793 30.6279 44.2147 30.212C44.3501 29.7961 44.8012 29.5698 45.2222 29.7069C45.6434 29.844 45.8748 30.2924 45.7394 30.7083Z" fill="#999999"/>
<path fill-rule="evenodd" clip-rule="evenodd" d="M48.926 32.5794C48.7906 32.9953 48.3395 33.2215 47.9183 33.0844C47.4973 32.9473 47.2659 32.4989 47.4013 32.083C47.5367 31.6671 47.9877 31.4409 48.4087 31.5779C48.8299 31.715 49.0614 32.1635 48.926 32.5794Z" fill="#999999"/>
<path fill-rule="evenodd" clip-rule="evenodd" d="M41.8562 17.5199L39.7918 18.6402L43.4594 23.9252L44.0361 23.5838L41.8562 17.5199Z" fill="#CCCCCC"/>
<path fill-rule="evenodd" clip-rule="evenodd" d="M38.7054 21.9099L37.689 23.3987L41.3941 25.1621L41.7732 24.6854L38.7054 21.9099Z" fill="#CCCCCC"/>
</svg>
