<svg width="115" height="121" viewBox="0 0 115 121" fill="none" xmlns="http://www.w3.org/2000/svg">
<path opacity="0.3" d="M60.7018 38.9631L14.8257 52.1604L58.188 67.2429L95.8944 50.9035L60.7018 38.9631Z" fill="#999999"/>
<path d="M14.8257 51.532L57.2735 37.7063L99.0366 50.8736" stroke="#CCCCCC" stroke-width="2" stroke-linecap="round" stroke-linejoin="round"/>
<ellipse cx="58.1879" cy="49.0182" rx="25.766" ry="25.1376" fill="white" stroke="#CCCCCC" stroke-width="2"/>
<path d="M14.8257 105.237V52.4337L57.2735 66.6004L99.0366 51.532V104.593L57.2735 119.403L14.8257 105.237Z" fill="white" stroke="#CCCCCC" stroke-width="2" stroke-linejoin="round"/>
<path d="M57.5595 98.665L16.0825 77.9264L34.3073 81.0686L57.5595 65.9861L67.6146 85.6837L97.7797 76.0411V84.8393L57.5595 98.665Z" fill="#EDEDED"/>
<path d="M1.75564 69.421L14.3505 52.1419C14.6136 51.7809 15.0842 51.6382 15.5034 51.7922L56.398 66.8162C56.9958 67.0358 57.2387 67.7508 56.8985 68.2891L44.9 87.2763C44.6419 87.6847 44.1287 87.8502 43.6806 87.6695L2.18974 70.9375C1.58579 70.6939 1.37205 69.9473 1.75564 69.421Z" fill="white" stroke="#CCCCCC" stroke-width="2" stroke-linecap="round" stroke-linejoin="round"/>
<path d="M67.637 86.3267L58.0679 67.6091C57.7966 67.0785 58.0467 66.4299 58.604 66.2188L98.2558 51.1995C98.7083 51.0281 99.2186 51.2052 99.4676 51.6201L109.751 68.7595C110.066 69.2842 109.84 69.9661 109.274 70.1989L68.9076 86.7963C68.4264 86.9942 67.8738 86.79 67.637 86.3267Z" fill="white" stroke="#CCCCCC" stroke-width="2" stroke-linecap="round" stroke-linejoin="round"/>
<path d="M57.5596 66.6145V118.147" stroke="#CCCCCC" stroke-width="2"/>
<path d="M59.7541 58.05V61.5871H55.9941V58.05H59.7541ZM62.1321 43.0129C62.1321 41.8149 61.7866 40.8944 61.0955 40.2513C60.4045 39.5956 59.4492 39.2677 58.2298 39.2677C57.0103 39.2677 56.0212 39.5578 55.2624 40.1378C54.5171 40.7053 54.1445 41.5249 54.1445 42.5967H50.7097L50.6487 42.4832C50.608 40.6674 51.2855 39.211 52.6812 38.114C54.0903 37.0043 55.9534 36.4495 58.2704 36.4495C60.601 36.4495 62.4234 37.0169 63.7377 38.1518C65.0656 39.2867 65.7295 40.8818 65.7295 42.9372C65.7295 44.2991 65.3366 45.5726 64.5507 46.758C63.7784 47.9307 62.6063 49.2295 61.0346 50.6544C60.3977 51.247 60.0048 51.7766 59.8557 52.2432C59.7067 52.6972 59.6322 53.479 59.6322 54.5886L56.0144 54.6075C56.0279 52.9683 56.177 51.8334 56.4615 51.2029C56.7596 50.5598 57.532 49.715 58.7785 48.6683C59.5644 47.7983 60.0928 47.2056 60.3638 46.8904C60.6348 46.5751 60.9465 46.1653 61.2988 45.6609C61.6646 45.1439 61.895 44.7026 61.9898 44.3369C62.0847 43.9586 62.1321 43.5172 62.1321 43.0129Z" fill="#CCCCCC"/>
<path fill-rule="evenodd" clip-rule="evenodd" d="M41.6258 2.49219C41.4154 2.06294 40.8968 1.88557 40.4675 2.09603V2.09603C40.0383 2.30649 39.8609 2.82508 40.0714 3.25433L40.5477 4.2259C41.0213 5.19169 40.6222 6.35849 39.6564 6.83202L38.6849 7.30834C38.2557 7.5188 38.0783 8.03739 38.2888 8.46664V8.46664C38.4992 8.89589 39.0178 9.07325 39.4471 8.86279L40.4186 8.38647C41.3844 7.91295 42.5512 8.31201 43.0247 9.2778L43.501 10.2494C43.7115 10.6786 44.2301 10.856 44.6593 10.6455V10.6455C45.0886 10.4351 45.266 9.91647 45.0555 9.48722L44.5792 8.51569C44.1056 7.54988 44.5047 6.38305 45.4705 5.90952L46.4421 5.43314C46.8714 5.22268 47.0487 4.70409 46.8383 4.27484V4.27484C46.6278 3.84559 46.1092 3.66823 45.68 3.87869L44.7084 4.35506C43.7425 4.8286 42.5757 4.42953 42.1022 3.46372L41.6258 2.49219Z" fill="#CCCCCC"/>
<path fill-rule="evenodd" clip-rule="evenodd" d="M102.514 26.8799C102.676 26.4301 102.443 25.9341 101.993 25.7721V25.7721C101.543 25.6101 101.048 25.8434 100.886 26.2932L100.519 27.3112C100.154 28.3232 99.0384 28.848 98.0264 28.4835L97.0085 28.1168C96.5587 27.9548 96.0627 28.1881 95.9007 28.6379V28.6379C95.7387 29.0876 95.972 29.5836 96.4217 29.7456L97.4397 30.1123C98.4517 30.4768 98.9765 31.5927 98.612 32.6047L98.2453 33.6227C98.0833 34.0725 98.3166 34.5685 98.7663 34.7305V34.7305C99.2161 34.8925 99.7121 34.6592 99.8741 34.2094L100.241 33.1914C100.605 32.1794 101.721 31.6546 102.733 32.0191L103.751 32.3858C104.201 32.5478 104.697 32.3146 104.859 31.8648V31.8648C105.021 31.415 104.788 30.919 104.338 30.757L103.32 30.3903C102.308 30.0258 101.783 28.9099 102.148 27.8979L102.514 26.8799Z" fill="#CCCCCC"/>
<path fill-rule="evenodd" clip-rule="evenodd" d="M15.446 28.6209C15.4332 28.143 15.0353 27.766 14.5575 27.7788V27.7788C14.0796 27.7916 13.7025 28.1894 13.7154 28.6673L13.7444 29.749C13.7732 30.8242 12.925 31.7193 11.8497 31.7481L10.7681 31.7772C10.2902 31.79 9.91322 32.1878 9.92604 32.6657V32.6657C9.93886 33.1436 10.3367 33.5206 10.8146 33.5078L11.8962 33.4788C12.9714 33.4499 13.8664 34.2982 13.8953 35.3734L13.9243 36.4551C13.9371 36.933 14.335 37.31 14.8128 37.2972V37.2972C15.2907 37.2844 15.6678 36.8866 15.6549 36.4087L15.6259 35.327C15.5971 34.2518 16.4454 33.3567 17.5206 33.3278L18.6023 33.2988C19.0802 33.286 19.4573 32.8882 19.4444 32.4103V32.4103C19.4316 31.9324 19.0338 31.5554 18.5559 31.5682L17.4742 31.5972C16.3989 31.6261 15.5039 30.7778 15.475 29.7025L15.446 28.6209Z" fill="#CCCCCC"/>
</svg>
