<svg width="375" height="174" viewBox="0 0 375 174" fill="none" xmlns="http://www.w3.org/2000/svg">
<path d="M185.001 57.8767C186.974 57.1864 186.807 56.3144 188.175 55.4988C189.641 54.8461 191.422 55.0204 192.452 54.451C193.481 53.8816 195.346 52.4171 194.112 49.3109C192.879 46.2048 189.366 44.2368 184.344 46.7004C179.322 49.1639 179.939 53.8293 180.592 55.2947C181.245 56.76 183.028 58.5669 185.001 57.8767Z" fill="#F3F6F8"/>
<path d="M23.1546 125.541C21.2793 126.464 21.5496 127.31 20.2896 128.284C18.9135 129.109 17.1238 129.15 16.1705 129.839C15.2172 130.529 13.5427 132.207 15.1411 135.142C16.7396 138.077 20.4641 139.608 25.1528 136.557C29.8415 133.507 28.6668 128.95 27.8424 127.574C27.018 126.198 25.0299 124.619 23.1546 125.541Z" fill="#F3F6F8"/>
<path d="M241.511 188.055C242.368 186.149 241.621 185.67 241.971 184.116C242.507 182.604 243.86 181.432 244.155 180.293C244.451 179.154 244.672 176.794 241.57 175.55C238.468 174.306 234.622 175.5 232.952 180.838C231.282 186.177 235.091 188.94 236.603 189.476C238.115 190.011 240.653 189.962 241.511 188.055Z" fill="#F3F6F8"/>
<path d="M-0.79265 305.877C0.0648212 303.971 -0.682377 303.491 -0.331987 301.937C0.203396 300.425 1.55633 299.253 1.85195 298.114C2.14757 296.976 2.36883 294.615 -0.733128 293.371C-3.83509 292.127 -7.68099 293.321 -9.35132 298.659C-11.0217 303.998 -7.21276 306.762 -5.70059 307.297C-4.18843 307.832 -1.65012 307.783 -0.79265 305.877Z" fill="#F3F6F8"/>
<path d="M387.207 260.877C388.065 258.971 387.317 258.491 387.668 256.937C388.203 255.425 389.556 254.253 389.852 253.114C390.147 251.976 390.369 249.615 387.267 248.371C384.165 247.127 380.319 248.321 378.649 253.659C376.978 258.998 380.787 261.762 382.299 262.297C383.811 262.832 386.35 262.783 387.207 260.877Z" fill="#F3F6F8"/>
<path d="M361.194 162.471C362.247 164.277 363.071 163.948 364.132 165.136C365.051 166.451 365.218 168.234 365.973 169.136C366.727 170.038 368.519 171.591 371.335 169.79C374.15 167.99 375.415 164.167 372.043 159.704C368.67 155.241 364.207 156.733 362.892 157.652C361.577 158.571 360.142 160.665 361.194 162.471Z" fill="#F3F6F8"/>
<path d="M174.601 242.857L165.834 239.805L167.486 248.391L174.601 242.857Z" fill="#F3F6F8"/>
<path d="M40.6009 216.857L31.8337 213.805L33.4861 222.391L40.6009 216.857Z" fill="#F3F6F8"/>
<path d="M277.601 223.857L268.834 220.805L270.486 229.391L277.601 223.857Z" fill="#F3F6F8"/>
<path d="M316.601 292.857L307.834 289.805L309.486 298.391L316.601 292.857Z" fill="#F3F6F8"/>
<path d="M344.601 149.857L335.834 146.805L337.486 155.391L344.601 149.857Z" fill="#F3F6F8"/>
<path d="M183.601 75.8565L174.834 72.8045L176.486 81.3909L183.601 75.8565Z" fill="#F3F6F8"/>
<path d="M-4.39913 105.857L-13.1663 102.805L-11.5139 111.391L-4.39913 105.857Z" fill="#F3F6F8"/>
<path d="M275.601 15.8564L266.834 12.8044L268.486 21.3908L275.601 15.8564Z" fill="#F3F6F8"/>
<path d="M195.932 196.455L204.129 187.69L212.893 195.887L204.696 204.651L195.932 196.455Z" fill="#F3F6F8"/>
<path d="M14.932 280.454L23.1289 271.69L31.8931 279.887L23.6962 288.651L14.932 280.454Z" fill="#F3F6F8"/>
<path d="M234.932 125.455L243.129 116.69L251.893 124.887L243.696 133.651L234.932 125.455Z" fill="#F3F6F8"/>
<path d="M340.932 41.4544L349.129 32.6902L357.893 40.8871L349.696 49.6513L340.932 41.4544Z" fill="#F3F6F8"/>
<path d="M89.932 270.454L98.1289 261.69L106.893 269.887L98.6962 278.651L89.932 270.454Z" fill="#F3F6F8"/>
<path d="M230.932 45.4545L239.129 36.6903L247.893 44.8872L239.696 53.6514L230.932 45.4545Z" fill="#F3F6F8"/>
<path d="M-11.068 198.455L-2.8711 189.69L5.89311 197.887L-2.30377 206.651L-11.068 198.455Z" fill="#F3F6F8"/>
<path d="M81.932 128.455L90.1289 119.69L98.8931 127.887L90.6962 136.651L81.932 128.455Z" fill="#F3F6F8"/>
<path d="M77.932 10.4544L86.1289 1.69019L94.8931 9.88706L86.6962 18.6513L77.932 10.4544Z" fill="#F3F6F8"/>
<path d="M13.0995 3.69035L20.6473 3.85783L20.4798 11.4056L12.932 11.2382L13.0995 3.69035Z" fill="#F3F6F8"/>
<path d="M305.932 131.029L311.27 125.69L316.609 131.029L311.27 136.367L305.932 131.029Z" fill="#F3F6F8"/>
<path d="M385.932 33.0286L391.271 27.6902L396.609 33.0286L391.271 38.367L385.932 33.0286Z" fill="#F3F6F8"/>
<path d="M350.932 246.029L356.27 240.69L361.609 246.029L356.27 251.367L350.932 246.029Z" fill="#F3F6F8"/>
<path d="M382.932 90.0287L388.27 84.6903L393.609 90.0287L388.27 95.3671L382.932 90.0287Z" fill="#F3F6F8"/>
<path d="M74.0995 160.69L81.6473 160.858L81.4798 168.406L73.932 168.238L74.0995 160.69Z" fill="#F3F6F8"/>
<path fill-rule="evenodd" clip-rule="evenodd" d="M140.042 80.6047C137.484 79.9985 136.254 78.799 135.651 77.6124C135.03 76.3893 135.017 75.0648 135.114 74.1429C135.201 73.3222 135.663 72.3913 136.267 71.1944L136.269 71.1922C136.843 70.054 137.513 68.7256 137.794 67.2791L137.802 67.2354L137.806 67.191C137.895 65.9711 137.684 65.0989 137.505 64.357C137.467 64.1995 137.43 64.0477 137.398 63.8998C137.223 63.0915 137.123 62.2144 137.563 60.6481C137.956 59.2511 139.02 58.3697 140.374 57.8852C141.74 57.3962 143.323 57.3478 144.536 57.583C145.715 57.8116 147.991 58.7784 149.787 60.7934C151.554 62.7753 152.883 65.7984 152.192 70.2367C151.488 74.7547 149.673 77.6249 147.474 79.2225C145.274 80.8207 142.601 81.2108 140.042 80.6047ZM133.622 73.9852C133.511 75.0377 133.504 76.6983 134.314 78.2917C135.141 79.9217 136.767 81.3702 139.697 82.0643C142.627 82.7585 145.759 82.3219 148.355 80.4361C150.952 78.5496 152.925 75.2784 153.674 70.4675C154.436 65.5769 152.966 62.105 150.907 59.7953C148.878 57.5187 146.3 56.3973 144.821 56.1104C143.376 55.8301 141.517 55.8829 139.868 56.4729C138.207 57.0675 136.681 58.243 136.119 60.2422C135.605 62.0721 135.711 63.1998 135.932 64.2176C135.973 64.4081 136.016 64.5871 136.058 64.7609C136.227 65.4717 136.376 66.093 136.313 67.0371C136.073 68.2316 135.51 69.3655 134.928 70.5186L134.871 70.6315C134.327 71.7089 133.74 72.8705 133.622 73.9852ZM138.597 71.1969C138.564 71.2059 138.543 71.2113 138.511 71.1916C138.548 71.1017 138.619 70.9635 138.745 70.736L138.783 70.6663C139.115 70.0691 139.615 69.1679 139.741 67.9318C139.851 66.8501 139.652 65.9058 139.513 65.2423C139.49 65.1367 139.47 65.0381 139.452 64.9474C139.381 64.5868 139.371 64.4157 139.386 64.328C139.393 64.3243 139.402 64.3198 139.413 64.3147L139.414 64.3142C139.434 64.3056 139.475 64.2876 139.583 64.3534C139.712 64.4316 139.892 64.6115 140.061 64.9355C140.396 65.5766 140.6 66.6215 140.365 67.871C140.119 69.174 139.627 70.2049 139.139 70.773C138.891 71.0617 138.698 71.1696 138.597 71.1969ZM138.249 67.7796C138.154 68.7058 137.783 69.3761 137.452 69.974L137.418 70.0352C137.271 70.3007 137.078 70.6493 137.009 70.9903C136.968 71.1892 136.958 71.428 137.042 71.6775C137.124 71.919 137.272 72.1097 137.448 72.2573C137.888 72.6641 138.441 72.7935 138.99 72.6446C139.495 72.5076 139.929 72.156 140.277 71.7502C140.982 70.9294 141.559 69.6315 141.839 68.1487C142.128 66.6126 141.901 65.2189 141.391 64.2417C141.138 63.7566 140.793 63.3323 140.361 63.0707C139.911 62.7979 139.355 62.7021 138.81 62.9413C138.58 63.0422 138.371 63.187 138.207 63.391C138.043 63.5961 137.954 63.8238 137.913 64.0456C137.837 64.4504 137.912 64.8877 137.98 65.2353C138.002 65.3493 138.026 65.4637 138.05 65.5793C138.188 66.246 138.333 66.9478 138.249 67.7796Z" fill="#F3F6F8"/>
<path fill-rule="evenodd" clip-rule="evenodd" d="M219.2 11.6538C219.746 9.08145 220.916 7.82372 222.088 7.19336C223.296 6.5436 224.62 6.4995 225.544 6.57531C226.367 6.64279 227.308 7.08342 228.519 7.65922L228.521 7.66029C229.672 8.20785 231.016 8.8469 232.469 9.09346L232.513 9.1009L232.557 9.10311C233.779 9.16378 234.646 8.93262 235.383 8.736C235.54 8.69424 235.691 8.65403 235.838 8.61851C236.642 8.42438 237.516 8.30409 239.093 8.70751C240.498 9.06732 241.405 10.1104 241.921 11.4525C242.441 12.8073 242.527 14.3883 242.32 15.6062C242.119 16.7902 241.206 19.0887 239.234 20.9317C237.294 22.7445 234.303 24.1437 229.85 23.5567C225.316 22.9591 222.404 21.2119 220.756 19.0507C219.106 16.8887 218.654 14.2258 219.2 11.6538ZM225.667 5.08033C224.612 4.99379 222.952 5.02583 221.378 5.87228C219.768 6.73814 218.358 8.3967 217.732 11.3423C217.107 14.2882 217.617 17.4095 219.563 19.9605C221.51 22.5125 224.826 24.4075 229.653 25.0438C234.561 25.6907 237.997 24.1404 240.258 22.0277C242.486 19.9454 243.547 17.3426 243.799 15.8572C244.045 14.4056 243.949 12.5487 243.321 10.9141C242.687 9.2669 241.476 7.76926 239.465 7.25435C237.623 6.78303 236.498 6.91597 235.486 7.16041C235.296 7.20615 235.118 7.25311 234.946 7.29868C234.239 7.48512 233.621 7.64807 232.676 7.60703C231.476 7.39526 230.329 6.85933 229.163 6.30462L229.049 6.25025C227.959 5.73139 226.784 5.17199 225.667 5.08033ZM228.571 9.98847C228.561 9.95539 228.555 9.93487 228.574 9.90199C228.665 9.93712 228.805 10.0045 229.035 10.1251L229.106 10.1621C229.711 10.4794 230.623 10.9583 231.862 11.0553C232.946 11.1402 233.885 10.9192 234.545 10.7639C234.65 10.7392 234.748 10.7162 234.839 10.6963C235.198 10.6173 235.368 10.6033 235.456 10.6159C235.46 10.6225 235.465 10.6314 235.47 10.6429L235.471 10.644C235.48 10.6634 235.499 10.7037 235.436 10.8138C235.36 10.9447 235.185 11.1287 234.865 11.3053C234.232 11.6548 233.192 11.8834 231.937 11.6774C230.629 11.4625 229.587 10.9949 229.007 10.5205C228.713 10.2793 228.601 10.0883 228.571 9.98847ZM231.979 9.55988C231.051 9.48717 230.372 9.13184 229.767 8.81488L229.705 8.78246C229.436 8.64165 229.083 8.45679 228.74 8.39539C228.54 8.35958 228.301 8.35557 228.054 8.44537C227.814 8.5323 227.627 8.68523 227.484 8.86421C227.087 9.31346 226.971 9.8694 227.133 10.4149C227.282 10.9168 227.643 11.3422 228.057 11.681C228.894 12.3665 230.205 12.913 231.694 13.1576C233.237 13.4109 234.625 13.1512 235.59 12.6186C236.069 12.3542 236.485 11.9988 236.736 11.561C236.998 11.1047 237.081 10.5466 236.829 10.0077C236.723 9.78049 236.573 9.57456 236.366 9.41569C236.157 9.25595 235.927 9.17282 235.704 9.13641C235.298 9.06997 234.862 9.15519 234.516 9.23133C234.403 9.25628 234.289 9.2827 234.174 9.30936C233.511 9.46322 232.813 9.62518 231.979 9.55988Z" fill="#F3F6F8"/>
<path fill-rule="evenodd" clip-rule="evenodd" d="M346.2 73.6538C346.746 71.0815 347.916 69.8237 349.088 69.1934C350.296 68.5436 351.62 68.4995 352.544 68.5753C353.367 68.6428 354.308 69.0834 355.519 69.6592L355.521 69.6603C356.672 70.2078 358.016 70.8469 359.469 71.0935L359.513 71.1009L359.557 71.1031C360.779 71.1638 361.646 70.9326 362.383 70.736C362.54 70.6942 362.691 70.654 362.838 70.6185C363.642 70.4244 364.516 70.3041 366.093 70.7075C367.498 71.0673 368.405 72.1104 368.921 73.4525C369.441 74.8073 369.527 76.3883 369.32 77.6062C369.119 78.7902 368.206 81.0887 366.234 82.9317C364.294 84.7445 361.303 86.1437 356.85 85.5567C352.316 84.9591 349.404 83.2119 347.756 81.0507C346.106 78.8887 345.654 76.2258 346.2 73.6538ZM352.667 67.0803C351.612 66.9938 349.952 67.0258 348.378 67.8723C346.768 68.7381 345.358 70.3967 344.732 73.3423C344.107 76.2882 344.617 79.4095 346.563 81.9605C348.51 84.5125 351.826 86.4075 356.653 87.0438C361.561 87.6907 364.997 86.1404 367.258 84.0277C369.486 81.9454 370.547 79.3426 370.799 77.8572C371.045 76.4056 370.949 74.5487 370.321 72.9141C369.687 71.2669 368.476 69.7693 366.465 69.2543C364.623 68.783 363.498 68.916 362.486 69.1604C362.296 69.2061 362.118 69.2531 361.946 69.2987C361.239 69.4851 360.621 69.6481 359.676 69.607C358.476 69.3953 357.329 68.8593 356.163 68.3046L356.049 68.2502C354.959 67.7314 353.784 67.172 352.667 67.0803ZM355.571 71.9885C355.561 71.9554 355.555 71.9349 355.574 71.902C355.665 71.9371 355.805 72.0045 356.035 72.1251L356.106 72.1621C356.711 72.4794 357.623 72.9583 358.862 73.0553C359.946 73.1402 360.885 72.9192 361.545 72.7639C361.65 72.7392 361.748 72.7162 361.839 72.6963C362.198 72.6173 362.368 72.6032 362.456 72.6159C362.46 72.6225 362.465 72.6314 362.47 72.6429L362.471 72.644C362.48 72.6634 362.499 72.7037 362.436 72.8138C362.36 72.9447 362.185 73.1287 361.865 73.3053C361.232 73.6548 360.192 73.8834 358.937 73.6774C357.629 73.4625 356.587 72.9949 356.007 72.5205C355.713 72.2793 355.6 72.0883 355.571 71.9885ZM358.979 71.5599C358.051 71.4872 357.372 71.1318 356.767 70.8149L356.705 70.7825C356.436 70.6416 356.083 70.4568 355.74 70.3954C355.54 70.3596 355.301 70.3556 355.054 70.4454C354.815 70.5323 354.627 70.6852 354.484 70.8642C354.087 71.3135 353.971 71.8694 354.133 72.4149C354.282 72.9168 354.643 73.3422 355.057 73.681C355.894 74.3665 357.205 74.913 358.694 75.1576C360.237 75.4109 361.625 75.1512 362.59 74.6186C363.069 74.3542 363.485 73.9988 363.736 73.561C363.998 73.1047 364.081 72.5466 363.829 72.0077C363.723 71.7805 363.573 71.5746 363.366 71.4157C363.157 71.256 362.927 71.1728 362.704 71.1364C362.298 71.07 361.862 71.1552 361.516 71.2313C361.403 71.2563 361.289 71.2827 361.174 71.3094C360.511 71.4632 359.813 71.6252 358.979 71.5599Z" fill="#F3F6F8"/>
<path fill-rule="evenodd" clip-rule="evenodd" d="M276.766 117.239C279.373 116.89 280.951 117.57 281.938 118.462C282.956 119.382 283.442 120.614 283.681 121.51C283.893 122.307 283.794 123.342 283.658 124.676L283.658 124.678C283.529 125.947 283.378 127.427 283.634 128.878L283.642 128.922L283.654 128.964C284.007 130.136 284.516 130.875 284.949 131.503C285.041 131.637 285.13 131.765 285.212 131.892C285.665 132.584 286.072 133.368 286.222 134.988C286.355 136.433 285.676 137.636 284.586 138.573C283.484 139.519 282.024 140.13 280.807 140.344C279.625 140.553 277.153 140.464 274.754 139.225C272.396 138.007 270.073 135.659 269.131 131.267C268.172 126.797 268.839 123.467 270.322 121.188C271.804 118.909 274.16 117.588 276.766 117.239ZM285.13 121.123C284.857 120.101 284.27 118.548 282.944 117.349C281.587 116.123 279.552 115.352 276.567 115.752C273.582 116.152 270.814 117.681 269.064 120.371C267.314 123.061 266.643 126.822 267.664 131.582C268.703 136.422 271.317 139.138 274.066 140.558C276.776 141.958 279.584 142.083 281.067 141.822C282.517 141.566 284.234 140.852 285.563 139.711C286.902 138.561 287.906 136.918 287.715 134.85C287.541 132.957 287.038 131.942 286.468 131.071C286.361 130.908 286.257 130.756 286.156 130.608C285.743 130.005 285.382 129.478 285.104 128.574C284.9 127.373 285.02 126.113 285.151 124.828L285.164 124.702C285.286 123.501 285.419 122.207 285.13 121.123ZM281.482 125.507C281.51 125.487 281.527 125.474 281.564 125.481C281.562 125.578 281.545 125.733 281.509 125.99L281.498 126.069C281.402 126.745 281.258 127.766 281.582 128.965C281.866 130.015 282.39 130.825 282.758 131.395C282.816 131.486 282.871 131.57 282.92 131.649C283.115 131.96 283.185 132.116 283.203 132.203C283.198 132.209 283.191 132.217 283.182 132.226L283.181 132.226C283.166 132.242 283.135 132.273 283.01 132.25C282.861 132.223 282.629 132.12 282.355 131.878C281.813 131.399 281.249 130.496 281.021 129.245C280.784 127.941 280.875 126.802 281.127 126.097C281.256 125.738 281.398 125.568 281.482 125.507ZM283.03 128.573C282.787 127.675 282.894 126.916 282.989 126.239L282.999 126.17C283.041 125.869 283.096 125.475 283.039 125.132C283.006 124.931 282.929 124.705 282.762 124.502C282.6 124.306 282.393 124.181 282.176 124.106C281.62 123.883 281.057 123.96 280.597 124.296C280.175 124.604 279.895 125.088 279.715 125.591C279.35 126.61 279.276 128.029 279.546 129.513C279.825 131.051 280.536 132.271 281.361 133.001C281.771 133.364 282.246 133.636 282.742 133.726C283.26 133.82 283.814 133.71 284.237 133.292C284.415 133.116 284.559 132.906 284.639 132.657C284.719 132.406 284.72 132.162 284.68 131.94C284.606 131.535 284.379 131.153 284.191 130.853C284.13 130.755 284.067 130.656 284.003 130.557C283.635 129.984 283.248 129.38 283.03 128.573Z" fill="#F3F6F8"/>
<path fill-rule="evenodd" clip-rule="evenodd" d="M255.905 240.07C256.632 242.597 256.189 244.257 255.451 245.364C254.69 246.506 253.542 247.167 252.691 247.534C251.933 247.861 250.895 247.914 249.555 247.975L249.553 247.975C248.279 248.033 246.793 248.1 245.395 248.565L245.353 248.579L245.312 248.598C244.205 249.118 243.549 249.73 242.99 250.25C242.871 250.36 242.757 250.467 242.644 250.567C242.025 251.116 241.31 251.633 239.729 252.018C238.319 252.361 237.029 251.866 235.943 250.924C234.847 249.973 234.028 248.617 233.638 247.445C233.259 246.305 232.985 243.847 233.86 241.294C234.721 238.782 236.704 236.141 240.911 234.567C245.193 232.964 248.585 233.138 251.056 234.271C253.527 235.405 255.178 237.543 255.905 240.07ZM253.285 248.911C254.257 248.492 255.707 247.683 256.699 246.197C257.713 244.676 258.179 242.549 257.346 239.655C256.514 236.761 254.597 234.245 251.681 232.908C248.763 231.57 244.945 231.456 240.385 233.162C235.749 234.897 233.444 237.88 232.441 240.807C231.453 243.693 231.74 246.489 232.215 247.918C232.68 249.315 233.637 250.909 234.96 252.057C236.293 253.213 238.066 253.966 240.084 253.475C241.931 253.026 242.861 252.38 243.64 251.689C243.786 251.559 243.921 251.434 244.052 251.313C244.588 250.816 245.057 250.382 245.91 249.974C247.069 249.598 248.333 249.532 249.623 249.473L249.75 249.468C250.956 249.414 252.256 249.355 253.285 248.911ZM248.415 245.943C248.439 245.968 248.454 245.983 248.453 246.021C248.356 246.033 248.201 246.039 247.941 246.041L247.861 246.041C247.178 246.045 246.148 246.051 245.009 246.548C244.012 246.982 243.286 247.619 242.777 248.066C242.696 248.137 242.62 248.204 242.55 248.264C242.27 248.502 242.126 248.595 242.042 248.625C242.036 248.621 242.027 248.615 242.017 248.607L242.016 248.607C241.999 248.594 241.963 248.567 241.968 248.44C241.972 248.289 242.041 248.044 242.24 247.738C242.635 247.132 243.445 246.442 244.65 246.034C245.906 245.609 247.045 245.532 247.78 245.679C248.153 245.753 248.342 245.869 248.415 245.943ZM245.608 247.923C246.461 247.551 247.228 247.546 247.911 247.541L247.981 247.541C248.284 247.538 248.683 247.536 249.014 247.429C249.207 247.367 249.42 247.258 249.596 247.062C249.767 246.873 249.86 246.65 249.903 246.425C250.042 245.842 249.883 245.297 249.484 244.891C249.117 244.518 248.598 244.312 248.073 244.208C247.012 243.996 245.598 244.13 244.169 244.613C242.688 245.115 241.585 245.996 240.983 246.92C240.685 247.378 240.485 247.887 240.468 248.392C240.451 248.918 240.641 249.449 241.116 249.807C241.317 249.957 241.546 250.069 241.804 250.111C242.063 250.154 242.305 250.12 242.519 250.047C242.909 249.915 243.253 249.635 243.523 249.405C243.611 249.33 243.699 249.253 243.788 249.176C244.301 248.728 244.841 248.257 245.608 247.923Z" fill="#F3F6F8"/>
<path fill-rule="evenodd" clip-rule="evenodd" d="M324.162 252.567C321.753 253.62 320.049 253.4 318.854 252.813C317.623 252.209 316.816 251.158 316.34 250.362C315.917 249.654 315.727 248.632 315.491 247.312L315.49 247.31C315.266 246.055 315.004 244.59 314.359 243.265L314.339 243.225L314.315 243.188C313.654 242.159 312.961 241.588 312.372 241.103C312.247 241 312.127 240.901 312.012 240.802C311.386 240.261 310.78 239.62 310.191 238.103C309.665 236.75 309.986 235.406 310.777 234.206C311.576 232.994 312.812 232.004 313.923 231.464C315.003 230.938 317.403 230.343 320.05 230.875C322.653 231.398 325.531 233.016 327.645 236.979C329.797 241.014 330.071 244.399 329.273 246.997C328.474 249.596 326.572 251.514 324.162 252.567ZM315.053 251.132C315.597 252.041 316.589 253.372 318.193 254.16C319.834 254.965 322.003 255.147 324.763 253.941C327.523 252.736 329.764 250.505 330.706 247.438C331.649 244.369 331.26 240.569 328.969 236.273C326.639 231.906 323.379 230.014 320.345 229.404C317.355 228.804 314.621 229.456 313.266 230.115C311.943 230.759 310.488 231.918 309.525 233.38C308.554 234.854 308.04 236.71 308.792 238.646C309.481 240.418 310.243 241.255 311.031 241.937C311.179 242.064 311.32 242.181 311.458 242.295C312.021 242.762 312.513 243.169 313.029 243.962C313.555 245.061 313.787 246.305 314.014 247.577L314.037 247.701C314.249 248.889 314.478 250.17 315.053 251.132ZM317.355 245.914C317.334 245.942 317.32 245.958 317.283 245.962C317.258 245.868 317.232 245.715 317.196 245.457L317.185 245.379C317.091 244.702 316.949 243.681 316.307 242.617C315.746 241.686 315.019 241.051 314.509 240.604C314.428 240.533 314.352 240.467 314.283 240.405C314.01 240.159 313.899 240.029 313.858 239.95C313.862 239.943 313.866 239.934 313.872 239.923L313.873 239.922C313.883 239.903 313.905 239.864 314.032 239.851C314.182 239.836 314.434 239.872 314.763 240.03C315.416 240.341 316.207 241.054 316.77 242.194C317.356 243.383 317.582 244.503 317.533 245.25C317.509 245.63 317.419 245.832 317.355 245.914ZM315.023 243.392C315.504 244.189 315.61 244.948 315.705 245.625L315.714 245.694C315.756 245.995 315.811 246.389 315.961 246.704C316.048 246.887 316.184 247.084 316.401 247.233C316.611 247.377 316.844 247.44 317.073 247.453C317.669 247.514 318.189 247.285 318.538 246.836C318.86 246.423 318.996 245.881 319.03 245.347C319.101 244.268 318.782 242.884 318.115 241.53C317.423 240.128 316.404 239.151 315.41 238.676C314.916 238.44 314.385 238.309 313.882 238.359C313.359 238.411 312.857 238.669 312.565 239.187C312.442 239.406 312.362 239.647 312.353 239.909C312.345 240.172 312.411 240.407 312.511 240.609C312.694 240.978 313.016 241.283 313.279 241.52C313.366 241.598 313.453 241.675 313.542 241.753C314.053 242.203 314.591 242.676 315.023 243.392Z" fill="#F3F6F8"/>
<path fill-rule="evenodd" clip-rule="evenodd" d="M13.5358 245.681C13.2826 248.299 12.2612 249.68 11.1674 250.438C10.04 251.22 8.72953 251.412 7.80287 251.441C6.97803 251.467 5.99292 251.135 4.72512 250.699L4.72278 250.698C3.51714 250.283 2.11007 249.8 0.638792 249.718L0.594374 249.716L0.549974 249.718C-0.670799 249.796 -1.50627 250.123 -2.21696 250.401C-2.36789 250.46 -2.51323 250.517 -2.6554 250.569C-3.43247 250.852 -4.28794 251.07 -5.89947 250.847C-7.33684 250.647 -8.35456 249.713 -9.01834 248.437C-9.68839 247.15 -9.95118 245.588 -9.88283 244.355C-9.81638 243.156 -9.16757 240.769 -7.41511 238.716C-5.69148 236.697 -2.87675 234.97 1.61428 235.052C6.18604 235.136 9.27601 236.544 11.1574 238.506C13.0396 240.469 13.7889 243.064 13.5358 245.681ZM7.84918 252.94C8.90705 252.908 10.5532 252.689 12.022 251.671C13.5244 250.629 14.7389 248.823 15.0288 245.826C15.3187 242.828 14.4609 239.784 12.2401 237.468C10.0185 235.151 6.50983 233.641 1.64177 233.552C-3.307 233.462 -6.54722 235.389 -8.55604 237.742C-10.536 240.062 -11.2972 242.768 -11.3805 244.272C-11.462 245.742 -11.1574 247.576 -10.3489 249.13C-9.53426 250.695 -8.16249 252.047 -6.10555 252.333C-4.22277 252.594 -3.11997 252.335 -2.14153 251.978C-1.95845 251.911 -1.78685 251.845 -1.62037 251.78C-0.939152 251.515 -0.343792 251.284 0.600134 251.218C1.81615 251.294 3.016 251.697 4.23737 252.117L4.357 252.158C5.49831 252.551 6.72876 252.975 7.84918 252.94ZM4.41129 248.39C4.42476 248.422 4.43282 248.442 4.41774 248.476C4.32365 248.452 4.17715 248.401 3.93463 248.307L3.86036 248.278C3.22362 248.031 2.26294 247.657 1.02113 247.7C-0.0655651 247.738 -0.974108 248.063 -1.61244 248.292C-1.71402 248.328 -1.8089 248.362 -1.89642 248.392C-2.24401 248.511 -2.41216 248.544 -2.50107 248.541C-2.50565 248.535 -2.51133 248.527 -2.51798 248.516L-2.51862 248.515C-2.52981 248.497 -2.55317 248.459 -2.50269 248.342C-2.44272 248.204 -2.28898 248.001 -1.99087 247.79C-1.40112 247.371 -0.393684 247.027 0.876274 247.091C2.20049 247.157 3.28862 247.504 3.91769 247.911C4.23742 248.117 4.37063 248.294 4.41129 248.39ZM1.07296 249.199C2.0034 249.167 2.71789 249.444 3.35521 249.691L3.4204 249.716C3.70343 249.826 4.07501 249.97 4.42227 249.992C4.62483 250.005 4.86275 249.982 5.0985 249.865C5.32671 249.752 5.4955 249.579 5.61791 249.385C5.96124 248.894 6.01439 248.328 5.79229 247.805C5.58796 247.323 5.1807 246.941 4.73141 246.651C3.82244 246.064 2.45827 245.668 0.951279 245.593C-0.60997 245.514 -1.95992 245.929 -2.85885 246.566C-3.30508 246.883 -3.6785 247.283 -3.87915 247.746C-4.08831 248.229 -4.10767 248.793 -3.79675 249.3C-3.66563 249.514 -3.49376 249.702 -3.26941 249.836C-3.04385 249.971 -2.80625 250.028 -2.58087 250.039C-2.16953 250.06 -1.74647 249.926 -1.41124 249.811C-1.3014 249.774 -1.19121 249.735 -1.08 249.695C-0.438187 249.468 0.237379 249.228 1.07296 249.199Z" fill="#F3F6F8"/>
<path fill-rule="evenodd" clip-rule="evenodd" d="M46.5479 248.696C46.1699 246.094 46.8326 244.509 47.7142 243.512C48.6228 242.484 49.8496 241.984 50.7427 241.736C51.5377 241.514 52.5735 241.602 53.9087 241.723L53.9111 241.723C55.1808 241.838 56.6627 241.973 58.111 241.702L58.1547 241.693L58.1972 241.68C59.3644 241.314 60.0978 240.797 60.7216 240.357C60.8541 240.264 60.9817 240.174 61.1074 240.09C61.7946 239.63 62.5734 239.214 64.1918 239.047C65.6353 238.898 66.8464 239.563 67.7951 240.644C68.7527 241.734 69.3801 243.188 69.6076 244.402C69.8289 245.583 69.7676 248.055 68.5551 250.467C67.3624 252.839 65.0404 255.187 60.6592 256.177C56.1992 257.186 52.8626 256.554 50.5678 255.097C48.2721 253.64 46.9258 251.298 46.5479 248.696ZM50.3404 240.291C49.3208 240.574 47.7742 241.179 46.5904 242.518C45.3795 243.888 44.6306 245.932 45.0634 248.912C45.4963 251.892 47.055 254.644 49.7638 256.364C52.4735 258.084 56.2409 258.714 60.99 257.641C65.8177 256.549 68.5052 253.905 69.8952 251.141C71.2652 248.416 71.3596 245.607 71.082 244.126C70.8107 242.679 70.0776 240.97 68.9223 239.654C67.7579 238.328 66.1035 237.342 64.0378 237.555C62.1471 237.75 61.1377 238.264 60.2725 238.844C60.1106 238.952 59.9598 239.058 59.8136 239.16C59.2151 239.58 58.692 239.947 57.791 240.235C56.592 240.452 55.3306 240.346 54.0443 240.229L53.9183 240.218C52.7162 240.108 51.4203 239.99 50.3404 240.291ZM54.7637 243.89C54.7431 243.863 54.7305 243.845 54.7369 243.808C54.8341 243.81 54.9886 243.824 55.2465 243.858L55.3255 243.868C56.0029 243.956 57.0248 244.09 58.2206 243.752C59.267 243.457 60.0718 242.924 60.6373 242.55C60.7273 242.491 60.8113 242.435 60.8892 242.385C61.1985 242.187 61.3538 242.115 61.4408 242.096C61.4467 242.101 61.4542 242.107 61.4633 242.116L61.4641 242.117C61.4793 242.132 61.5111 242.164 61.4898 242.289C61.4646 242.438 61.3636 242.671 61.1245 242.947C60.6514 243.494 59.7551 244.069 58.5066 244.31C57.2047 244.561 56.0651 244.483 55.3574 244.238C54.9976 244.114 54.826 243.974 54.7637 243.89ZM57.8129 242.309C56.917 242.562 56.1571 242.463 55.4794 242.375L55.41 242.366C55.109 242.327 54.7138 242.276 54.3712 242.337C54.1714 242.373 53.9458 242.452 53.7447 242.621C53.5501 242.786 53.4274 242.994 53.3548 243.212C53.1384 243.77 53.2215 244.332 53.5621 244.788C53.8754 245.207 54.3619 245.481 54.8674 245.656C55.8901 246.009 57.3092 246.068 58.7908 245.783C60.3257 245.486 61.538 244.762 62.259 243.929C62.6169 243.515 62.8843 243.037 62.9687 242.54C63.0567 242.021 62.9411 241.469 62.5183 241.05C62.34 240.874 62.1283 240.732 61.8784 240.655C61.6271 240.578 61.3828 240.579 61.1613 240.622C60.757 240.7 60.378 240.931 60.0797 241.122C59.982 241.185 59.8843 241.249 59.7857 241.314C59.2166 241.688 58.6176 242.081 57.8129 242.309Z" fill="#F3F6F8"/>
<path fill-rule="evenodd" clip-rule="evenodd" d="M111.09 171.189C112.165 168.789 113.574 167.806 114.852 167.436C116.17 167.055 117.473 167.29 118.361 167.558C119.151 167.797 119.978 168.426 121.041 169.244L121.043 169.245C122.053 170.022 123.233 170.93 124.601 171.476L124.642 171.493L124.685 171.504C125.867 171.821 126.763 171.777 127.526 171.74C127.688 171.732 127.843 171.724 127.995 171.72C128.822 171.7 129.702 171.766 131.158 172.492C132.457 173.139 133.123 174.35 133.345 175.77C133.57 177.204 133.321 178.768 132.863 179.915C132.417 181.03 131.041 183.085 128.725 184.472C126.448 185.837 123.229 186.576 118.999 185.065C114.693 183.528 112.213 181.207 111.056 178.748C109.898 176.287 110.016 173.589 111.09 171.189ZM118.795 166.123C117.782 165.816 116.152 165.498 114.435 165.995C112.679 166.503 110.952 167.828 109.721 170.576C108.49 173.325 108.333 176.483 109.699 179.387C111.065 182.291 113.909 184.841 118.495 186.478C123.156 188.142 126.842 187.349 129.496 185.759C132.113 184.192 133.697 181.871 134.256 180.471C134.802 179.104 135.098 177.268 134.827 175.538C134.555 173.795 133.686 172.076 131.827 171.149C130.126 170.301 128.998 170.195 127.957 170.221C127.762 170.226 127.578 170.234 127.4 170.243C126.67 170.276 126.032 170.306 125.116 170.067C123.988 169.607 122.979 168.842 121.956 168.055L121.855 167.978C120.899 167.241 119.868 166.447 118.795 166.123ZM120.602 171.532C120.6 171.497 120.598 171.476 120.624 171.448C120.705 171.501 120.827 171.597 121.027 171.763L121.088 171.814C121.613 172.251 122.405 172.911 123.595 173.267C124.637 173.578 125.602 173.559 126.28 173.546C126.388 173.544 126.489 173.542 126.581 173.542C126.948 173.54 127.118 173.562 127.202 173.593C127.204 173.6 127.207 173.61 127.21 173.622L127.21 173.624C127.215 173.644 127.225 173.688 127.14 173.782C127.039 173.894 126.828 174.037 126.478 174.143C125.786 174.351 124.721 174.356 123.538 173.891C122.304 173.406 121.384 172.729 120.917 172.144C120.68 171.846 120.61 171.636 120.602 171.532ZM124.024 171.829C123.132 171.563 122.543 171.073 122.018 170.636L121.964 170.591C121.731 170.397 121.425 170.142 121.103 170.01C120.915 169.933 120.682 169.879 120.421 169.914C120.169 169.949 119.954 170.059 119.776 170.204C119.294 170.56 119.063 171.079 119.107 171.646C119.146 172.168 119.411 172.66 119.744 173.078C120.418 173.925 121.585 174.735 122.989 175.287C124.444 175.859 125.856 175.897 126.911 175.579C127.435 175.421 127.916 175.161 128.254 174.786C128.607 174.395 128.805 173.867 128.672 173.287C128.616 173.043 128.513 172.81 128.343 172.611C128.172 172.411 127.965 172.281 127.755 172.199C127.372 172.048 126.928 172.04 126.574 172.042C126.458 172.042 126.341 172.044 126.223 172.046C125.542 172.057 124.825 172.068 124.024 171.829Z" fill="#F3F6F8"/>
<path fill-rule="evenodd" clip-rule="evenodd" d="M144.575 287.815C143.244 285.546 143.261 283.828 143.703 282.573C144.157 281.278 145.106 280.353 145.839 279.787C146.492 279.282 147.485 278.973 148.767 278.583L148.77 278.582C149.989 278.211 151.413 277.777 152.652 276.98L152.69 276.956L152.724 276.928C153.667 276.149 154.152 275.394 154.564 274.752C154.652 274.616 154.736 274.484 154.821 274.359C155.284 273.674 155.849 272.995 157.286 272.231C158.567 271.549 159.939 271.709 161.225 272.353C162.523 273.003 163.651 274.113 164.319 275.152C164.969 276.162 165.843 278.476 165.628 281.167C165.417 283.813 164.15 286.863 160.464 289.431C156.713 292.044 153.384 292.716 150.709 292.231C148.034 291.745 145.905 290.083 144.575 287.815ZM144.922 278.6C144.085 279.247 142.88 280.389 142.287 282.075C141.681 283.8 141.757 285.976 143.281 288.573C144.804 291.171 147.284 293.133 150.441 293.706C153.6 294.28 157.327 293.445 161.322 290.661C165.383 287.832 166.877 284.371 167.124 281.286C167.367 278.246 166.396 275.608 165.581 274.341C164.785 273.103 163.462 271.796 161.896 271.012C160.318 270.222 158.414 269.931 156.581 270.907C154.903 271.8 154.161 272.656 153.578 273.519C153.469 273.68 153.369 273.835 153.272 273.985C152.876 274.599 152.53 275.136 151.803 275.742C150.774 276.395 149.566 276.772 148.33 277.148L148.209 277.185C147.055 277.536 145.809 277.914 144.922 278.6ZM150.376 280.268C150.346 280.251 150.328 280.239 150.32 280.202C150.41 280.167 150.559 280.123 150.811 280.056L150.888 280.036C151.548 279.863 152.545 279.602 153.526 278.839C154.384 278.171 154.929 277.374 155.312 276.815C155.373 276.726 155.43 276.643 155.483 276.567C155.695 276.267 155.812 276.142 155.885 276.092C155.893 276.094 155.902 276.097 155.914 276.102L155.915 276.103C155.935 276.111 155.976 276.128 156.003 276.252C156.036 276.399 156.03 276.653 155.913 277C155.681 277.684 155.067 278.554 154.001 279.247C152.89 279.97 151.804 280.327 151.057 280.367C150.677 280.388 150.465 280.322 150.376 280.268ZM152.605 277.655C151.87 278.227 151.129 278.422 150.468 278.596L150.4 278.613C150.107 278.691 149.722 278.792 149.427 278.977C149.255 279.086 149.076 279.244 148.954 279.477C148.835 279.702 148.8 279.942 148.815 280.17C148.825 280.769 149.113 281.259 149.601 281.553C150.049 281.823 150.603 281.894 151.137 281.865C152.217 281.807 153.554 281.328 154.819 280.505C156.129 279.652 156.98 278.525 157.334 277.481C157.509 276.963 157.577 276.42 157.468 275.927C157.354 275.413 157.039 274.945 156.49 274.717C156.258 274.621 156.009 274.569 155.748 274.592C155.486 274.615 155.26 274.708 155.071 274.831C154.726 275.056 154.462 275.413 154.258 275.702C154.191 275.797 154.125 275.893 154.058 275.99C153.671 276.551 153.265 277.141 152.605 277.655Z" fill="#F3F6F8"/>
<path fill-rule="evenodd" clip-rule="evenodd" d="M-10.0761 46.9654C-12.6349 46.3592 -13.8649 45.1598 -14.4676 43.9732C-15.0888 42.75 -15.1019 41.4256 -15.0045 40.5036C-14.9177 39.6829 -14.4551 38.752 -13.8511 37.5551L-13.85 37.5529C-13.2756 36.4147 -12.6052 35.0864 -12.3247 33.6398L-12.3162 33.5961L-12.313 33.5517C-12.2237 32.3318 -12.4345 31.4596 -12.6137 30.7177C-12.6518 30.5602 -12.6885 30.4085 -12.7205 30.2606C-12.8958 29.4522 -12.9955 28.5751 -12.5553 27.0088C-12.1626 25.6118 -11.0986 24.7304 -9.74479 24.2459C-8.37815 23.7569 -6.79555 23.7085 -5.58284 23.9437C-4.40391 24.1723 -2.12743 25.1391 -0.331104 27.1541C1.43566 29.136 2.76443 32.1591 2.07316 36.5974C1.36947 41.1154 -0.445435 43.9856 -2.64468 45.5832C-4.8448 47.1814 -7.51758 47.5715 -10.0761 46.9654ZM-16.4961 40.3459C-16.6074 41.3984 -16.6143 43.0591 -15.8049 44.6524C-14.9771 46.2824 -13.352 47.7309 -10.4219 48.425C-7.49141 49.1192 -4.35909 48.6826 -1.76309 46.7968C0.833778 44.9103 2.80599 41.6391 3.55529 36.8282C4.31701 31.9376 2.84767 28.4657 0.788568 26.156C-1.24097 23.8794 -3.81813 22.758 -5.29727 22.4711C-6.74262 22.1908 -8.60135 22.2436 -10.2502 22.8336C-11.9118 23.4282 -13.4374 24.6038 -13.9993 26.6029C-14.5137 28.4328 -14.4071 29.5605 -14.1865 30.5784C-14.1452 30.7688 -14.1024 30.9479 -14.0609 31.1216C-13.8911 31.8324 -13.7427 32.4537 -13.8059 33.3978C-14.0457 34.5923 -14.6083 35.7263 -15.1902 36.8793L-15.2473 36.9922C-15.7915 38.0696 -16.3783 39.2312 -16.4961 40.3459ZM-11.5213 37.5576C-11.5546 37.5667 -11.5752 37.572 -11.6077 37.5523C-11.5704 37.4624 -11.4998 37.3242 -11.3738 37.0967L-11.3352 37.027C-11.0038 36.4298 -10.5037 35.5287 -10.3776 34.2925C-10.2673 33.2108 -10.4662 32.2665 -10.606 31.603C-10.6282 31.4975 -10.649 31.3988 -10.6668 31.3081C-10.7373 30.9476 -10.7473 30.7765 -10.7327 30.6887C-10.7259 30.685 -10.7169 30.6805 -10.7053 30.6754L-10.7042 30.6749C-10.6846 30.6663 -10.6439 30.6483 -10.5353 30.7142C-10.4062 30.7924 -10.2263 30.9722 -10.0572 31.2963C-9.72276 31.9374 -9.51853 32.9822 -9.75393 34.2318C-9.9994 35.5347 -10.4913 36.5656 -10.9792 37.1337C-11.2272 37.4224 -11.4208 37.5304 -11.5213 37.5576ZM-11.8699 34.1403C-11.9643 35.0665 -12.3355 35.7368 -12.6665 36.3347L-12.7004 36.3959C-12.8475 36.6614 -13.0406 37.01 -13.11 37.351C-13.1504 37.5499 -13.1601 37.7887 -13.0761 38.0382C-12.9948 38.2797 -12.8463 38.4704 -12.6707 38.618C-12.2309 39.0248 -11.6778 39.1543 -11.1287 39.0053C-10.6235 38.8683 -10.1897 38.5167 -9.84125 38.111C-9.13631 37.2901 -8.55921 35.9923 -8.27987 34.5095C-7.99046 32.9733 -8.21753 31.5796 -8.72738 30.6024C-8.98047 30.1173 -9.32601 29.6931 -9.75778 29.4314C-10.2079 29.1586 -10.7639 29.0628 -11.3085 29.302C-11.5381 29.4029 -11.7475 29.5477 -11.9112 29.7517C-12.0758 29.9568 -12.1643 30.1845 -12.2059 30.4063C-12.2819 30.8111 -12.2069 31.2484 -12.1389 31.5961C-12.1166 31.71 -12.0928 31.8245 -12.0689 31.94C-11.9306 32.6067 -11.7851 33.3086 -11.8699 34.1403Z" fill="#F3F6F8"/>
<path fill-rule="evenodd" clip-rule="evenodd" d="M97.2573 93.6235C96.6252 96.176 95.4133 97.3938 94.2207 97.9844C92.9913 98.5933 91.6668 98.5929 90.7458 98.4861C89.9261 98.3911 88.9999 97.9191 87.8092 97.3029L87.807 97.3018C86.6747 96.7159 85.3532 96.0321 83.9095 95.7369L83.8659 95.728L83.8216 95.7243C82.6026 95.6227 81.7284 95.8246 80.9847 95.9963C80.8268 96.0328 80.6747 96.0679 80.5265 96.0985C79.7164 96.2655 78.8383 96.3564 77.2766 95.9003C75.8836 95.4935 75.013 94.4206 74.5423 93.0619C74.0671 91.6904 74.0348 90.1074 74.2823 88.8971C74.5228 87.7206 75.5127 85.454 77.5458 83.6782C79.5454 81.9316 82.5819 80.6336 87.0129 81.3698C91.5236 82.1192 94.3752 83.9631 95.9504 86.1785C97.5263 88.3947 97.8893 91.0713 97.2573 93.6235ZM90.5731 99.9761C91.6244 100.098 93.2848 100.122 94.8864 99.3286C96.5246 98.5173 97.9895 96.907 98.7133 93.984C99.4372 91.0608 99.0323 87.9242 97.1729 85.3092C95.3129 82.6934 92.0618 80.6881 87.2588 79.8901C82.3761 79.0788 78.8895 80.5129 76.559 82.5485C74.262 84.5548 73.1145 87.1205 72.8127 88.5966C72.5178 90.0391 72.5517 91.8983 73.125 93.553C73.7027 95.2205 74.8627 96.758 76.8561 97.3401C78.6806 97.873 79.8094 97.7779 80.8294 97.5676C81.0202 97.5282 81.1997 97.4873 81.3739 97.4475C82.0864 97.2849 82.7091 97.1428 83.6525 97.2156C84.8446 97.4675 85.9728 98.0416 87.1199 98.6352L87.2322 98.6933C88.304 99.2485 89.4596 99.847 90.5731 99.9761ZM87.8353 94.9733C87.844 95.0067 87.8491 95.0274 87.8291 95.0596C87.7396 95.0214 87.6022 94.9494 87.3759 94.8212L87.3066 94.7818C86.7128 94.4443 85.8168 93.9351 84.582 93.7966C83.5014 93.6753 82.5551 93.8646 81.8903 93.9977C81.7845 94.0188 81.6857 94.0386 81.5947 94.0554C81.2335 94.1223 81.0623 94.1306 80.9748 94.1151C80.9711 94.1083 80.9667 94.0993 80.9617 94.0875L80.9613 94.0864C80.9528 94.0668 80.9352 94.0259 81.0022 93.9179C81.0817 93.7897 81.2634 93.6116 81.5891 93.4458C82.2336 93.1179 83.2804 92.9242 84.5275 93.1723C85.8279 93.431 86.8538 93.9333 87.4169 94.4269C87.7031 94.6778 87.8091 94.8725 87.8353 94.9733ZM84.4147 95.2872C85.3399 95.391 86.0064 95.7689 86.6009 96.106L86.6617 96.1405C86.9257 96.2903 87.2723 96.4869 87.6126 96.5598C87.8111 96.6023 88.0498 96.6143 88.3001 96.5328C88.5424 96.454 88.7346 96.3074 88.884 96.1334C89.2952 95.6977 89.4303 95.146 89.2869 94.5954C89.155 94.0888 88.8078 93.6515 88.4056 93.2989C87.592 92.5857 86.3001 91.9955 84.8202 91.7011C83.287 91.3962 81.8911 91.6091 80.9088 92.109C80.4212 92.3572 79.9934 92.6984 79.7274 93.1275C79.45 93.5748 79.3486 94.1298 79.5823 94.6768C79.6808 94.9075 79.8235 95.1183 80.0259 95.2841C80.2293 95.4507 80.4561 95.5415 80.6774 95.5854C81.0814 95.6654 81.5194 95.5949 81.8678 95.5304C81.9819 95.5092 82.0966 95.4867 82.2124 95.4639C82.8805 95.3324 83.5838 95.194 84.4147 95.2872Z" fill="#F3F6F8"/>
<path fill-rule="evenodd" clip-rule="evenodd" d="M261.432 31.4896L265.494 36.5673L270.432 31.6295L275.432 36.6295L280.432 31.6295L285.432 36.6295L290.432 31.6295L295.962 37.1599L294.902 38.2205L290.432 33.7508L285.432 38.7508L280.432 33.7508L275.432 38.7508L270.432 33.7508L265.37 38.813L261.432 33.8908L257.466 38.8487L252.374 33.1919L253.489 32.1885L257.398 36.5317L261.432 31.4896Z" fill="#F3F6F8"/>
<path fill-rule="evenodd" clip-rule="evenodd" d="M19.432 61.4896L23.4942 66.5673L28.432 61.6295L33.432 66.6295L38.432 61.6295L43.432 66.6295L48.432 61.6295L53.9623 67.1599L52.9017 68.2205L48.432 63.7508L43.432 68.7508L38.432 63.7508L33.432 68.7508L28.432 63.7508L23.3698 68.813L19.432 63.8908L15.4657 68.8487L10.3745 63.1919L11.4895 62.1885L15.3984 66.5317L19.432 61.4896Z" fill="#F3F6F8"/>
<path fill-rule="evenodd" clip-rule="evenodd" d="M161.396 38.7411L167.821 39.7488L168.134 32.7728L175.198 33.0905L175.516 26.0266L182.58 26.3443L182.898 19.2803L190.711 19.6318L190.643 21.1302L184.329 20.8462L184.011 27.9102L176.947 27.5924L176.629 34.6564L169.565 34.3386L169.244 41.4904L163.016 40.5135L163.433 46.8491L155.859 46.108L156.005 44.6151L161.82 45.1841L161.396 38.7411Z" fill="#F3F6F8"/>
<path fill-rule="evenodd" clip-rule="evenodd" d="M90.4896 231.45L95.9075 227.854L91.4268 222.498L96.8503 217.961L92.3132 212.537L97.7368 208L93.1997 202.576L99.1985 197.558L100.161 198.709L95.3126 202.764L99.8497 208.188L94.4262 212.725L98.9633 218.149L93.5398 222.686L98.1333 228.177L92.8813 231.663L97.4682 236.053L91.3823 240.623L90.4817 239.423L95.1543 235.915L90.4896 231.45Z" fill="#F3F6F8"/>
<path fill-rule="evenodd" clip-rule="evenodd" d="M254.912 201.657L260.075 197.704L255.243 192.662L260.348 187.769L255.455 182.664L260.56 177.772L255.668 172.667L261.314 167.255L262.352 168.338L257.789 172.712L262.681 177.817L257.576 182.709L262.469 187.814L257.364 192.707L262.317 197.876L257.313 201.708L262.185 205.779L256.422 210.749L255.442 209.613L259.867 205.797L254.912 201.657Z" fill="#F3F6F8"/>
<path fill-rule="evenodd" clip-rule="evenodd" d="M140.646 210.448L148.9 212.299L149.904 203.211L159.08 204.224L160.093 195.048L169.269 196.061L170.283 186.885L180.204 187.98L180.04 189.471L171.609 188.54L170.596 197.717L161.419 196.703L160.406 205.879L151.23 204.866L150.207 214.13L142.147 212.322L142.152 220.628L132.614 219.064L132.857 217.583L140.651 218.862L140.646 210.448Z" fill="#F3F6F8"/>
<path fill-rule="evenodd" clip-rule="evenodd" d="M168.382 301.737L172.628 306.662L177.381 301.547L182.561 306.36L187.375 301.18L192.555 305.993L197.368 300.814L203.097 306.137L202.076 307.236L197.446 302.933L192.632 308.113L187.452 303.3L182.639 308.48L177.459 303.667L172.586 308.911L168.47 304.136L164.688 309.236L159.393 303.77L160.471 302.726L164.536 306.923L168.382 301.737Z" fill="#F3F6F8"/>
<path fill-rule="evenodd" clip-rule="evenodd" d="M252.906 274.547L259.386 275.09L259.197 268.11L266.266 267.918L266.075 260.85L273.143 260.659L272.952 253.59L280.77 253.379L280.811 254.879L274.492 255.049L274.683 262.118L267.615 262.309L267.806 269.377L260.737 269.568L260.931 276.725L254.649 276.198L255.521 282.487L247.913 282.293L247.951 280.793L253.792 280.943L252.906 274.547Z" fill="#F3F6F8"/>
<path fill-rule="evenodd" clip-rule="evenodd" d="M152.182 103.94V99.6902H153.682V103.94H157.432V105.44H153.682V109.69H152.182V105.44H148.432V103.94H152.182Z" fill="#F3F6F8"/>
<path fill-rule="evenodd" clip-rule="evenodd" d="M219.682 113.94V109.69H221.182V113.94H224.932V115.44H221.182V119.69H219.682V115.44H215.932V113.94H219.682Z" fill="#F3F6F8"/>
<path fill-rule="evenodd" clip-rule="evenodd" d="M159.682 4.94019V0.690186H161.182V4.94019H164.932V6.44019H161.182V10.6902H159.682V6.44019H155.932V4.94019H159.682Z" fill="#F3F6F8"/>
<path fill-rule="evenodd" clip-rule="evenodd" d="M183.682 161.94V157.69H185.182V161.94H188.932V163.44H185.182V167.69H183.682V163.44H179.932V161.94H183.682Z" fill="#F3F6F8"/>
<path fill-rule="evenodd" clip-rule="evenodd" d="M369.682 7.94006V3.69006H371.182V7.94006H374.932V9.44006H371.182V13.6901H369.682V9.44006H365.932V7.94006H369.682Z" fill="#F3F6F8"/>
<path fill-rule="evenodd" clip-rule="evenodd" d="M55.682 121.94V117.69H57.182V121.94H60.932V123.44H57.182V127.69H55.682V123.44H51.932V121.94H55.682Z" fill="#F3F6F8"/>
<path fill-rule="evenodd" clip-rule="evenodd" d="M-14.318 128.94V124.69H-12.818V128.94H-9.06799V130.44H-12.818V134.69H-14.318V130.44H-18.068V128.94H-14.318Z" fill="#F3F6F8"/>
<path fill-rule="evenodd" clip-rule="evenodd" d="M55.682 198.94V194.69H57.182V198.94H60.932V200.44H57.182V204.69H55.682V200.44H51.932V198.94H55.682Z" fill="#F3F6F8"/>
<path fill-rule="evenodd" clip-rule="evenodd" d="M231.682 201.94V197.69H233.182V201.94H236.932V203.44H233.182V207.69H231.682V203.44H227.932V201.94H231.682Z" fill="#F3F6F8"/>
<path fill-rule="evenodd" clip-rule="evenodd" d="M325.682 104.94V100.69H327.182V104.94H330.932V106.44H327.182V110.69H325.682V106.44H321.932V104.94H325.682Z" fill="#F3F6F8"/>
<path fill-rule="evenodd" clip-rule="evenodd" d="M333.682 179.94V175.69H335.182V179.94H338.932V181.44H335.182V185.69H333.682V181.44H329.932V179.94H333.682Z" fill="#F3F6F8"/>
<path fill-rule="evenodd" clip-rule="evenodd" d="M393.682 296.94V292.69H395.182V296.94H398.932V298.44H395.182V302.69H393.682V298.44H389.932V296.94H393.682Z" fill="#F3F6F8"/>
<path fill-rule="evenodd" clip-rule="evenodd" d="M229.682 295.94V291.69H231.182V295.94H234.932V297.44H231.182V301.69H229.682V297.44H225.932V295.94H229.682Z" fill="#F3F6F8"/>
<path fill-rule="evenodd" clip-rule="evenodd" d="M238.528 62.6643L243.688 66.6219L247.3 60.6455L253.352 64.3031L257.009 58.2515L263.061 61.909L266.718 55.8574L273.412 59.9029L272.636 61.1867L267.226 57.9171L263.569 63.9687L257.517 60.3111L253.859 66.3627L247.808 62.7052L244.105 68.832L239.103 64.9957L236.81 69.9569L235.448 69.3275L238.528 62.6643Z" fill="#F3F6F8"/>
<path fill-rule="evenodd" clip-rule="evenodd" d="M209.528 163.664L214.688 167.622L218.3 161.646L224.352 165.303L228.009 159.251L234.061 162.909L237.718 156.857L244.412 160.903L243.636 162.187L238.226 158.917L234.569 164.969L228.517 161.311L224.86 167.363L218.808 163.705L215.105 169.832L210.103 165.996L207.81 170.957L206.448 170.327L209.528 163.664Z" fill="#F3F6F8"/>
<path fill-rule="evenodd" clip-rule="evenodd" d="M368.588 114.282L365.334 117.177L368.761 120.263L365.616 123.756L369.108 126.901L365.963 130.393L369.455 133.538L365.808 137.588L364.693 136.584L367.336 133.649L363.844 130.504L366.989 127.012L363.497 123.866L366.642 120.374L363.085 117.17L366.19 114.408L363.495 112.473L364.369 111.254L368.588 114.282Z" fill="#F3F6F8"/>
<path fill-rule="evenodd" clip-rule="evenodd" d="M62.5885 286.282L59.3342 289.177L62.761 292.263L59.6158 295.756L63.1079 298.901L59.9627 302.393L63.4549 305.538L59.8077 309.588L58.6932 308.584L61.3364 305.649L57.8443 302.504L60.9895 299.012L57.4973 295.866L60.6426 292.374L57.085 289.17L60.1906 286.408L57.4947 284.473L58.3694 283.254L62.5885 286.282Z" fill="#F3F6F8"/>
<path fill-rule="evenodd" clip-rule="evenodd" d="M333.85 215.293L340.324 215.904L340.208 208.922L347.278 208.804L347.161 201.734L354.231 201.617L354.113 194.547L361.933 194.417L361.958 195.916L355.638 196.021L355.756 203.092L348.685 203.209L348.803 210.279L341.733 210.396L341.852 217.554L335.576 216.962L336.27 222.384L334.782 222.574L333.85 215.293Z" fill="#F3F6F8"/>
<path fill-rule="evenodd" clip-rule="evenodd" d="M175.951 102.269L182.393 101.384L180.684 94.6132L187.54 92.8826L185.81 86.0266L192.666 84.2959L190.935 77.4399L198.518 75.5257L198.885 76.9801L192.757 78.5272L194.487 85.3832L187.631 87.1138L189.362 93.9698L182.506 95.7005L184.258 102.642L178.013 103.5L179.928 108.619L178.523 109.145L175.951 102.269Z" fill="#F3F6F8"/>
<path fill-rule="evenodd" clip-rule="evenodd" d="M203.603 240.818L205.251 268.844L178.873 257.853L203.603 240.818ZM181.991 257.527L203.613 266.536L202.261 243.563L181.991 257.527Z" fill="#F3F6F8"/>
<path fill-rule="evenodd" clip-rule="evenodd" d="M119.103 283.318L120.751 311.344L94.3733 300.353L119.103 283.318ZM97.4907 300.027L119.113 309.036L117.761 286.063L97.4907 300.027Z" fill="#F3F6F8"/>
<path fill-rule="evenodd" clip-rule="evenodd" d="M68.2617 175.974L66.5472 191.99L53.561 183.481L68.2617 175.974ZM56.5438 183.642L65.3169 189.39L66.4751 178.57L56.5438 183.642Z" fill="#F3F6F8"/>
<path fill-rule="evenodd" clip-rule="evenodd" d="M323.992 77.1859L322.277 93.2022L309.291 84.6931L323.992 77.1859ZM312.274 84.8542L321.047 90.6027L322.205 79.7825L312.274 84.8542Z" fill="#F3F6F8"/>
<path fill-rule="evenodd" clip-rule="evenodd" d="M137.992 9.18593L136.278 25.2022L123.291 16.6931L137.992 9.18593ZM126.274 16.8542L135.047 22.6027L136.205 11.7825L126.274 16.8542Z" fill="#F3F6F8"/>
<path fill-rule="evenodd" clip-rule="evenodd" d="M75.9921 133.186L74.2777 149.202L61.2915 140.693L75.9921 133.186ZM64.2742 140.854L73.0474 146.603L74.2056 135.783L64.2742 140.854Z" fill="#F3F6F8"/>
<path fill-rule="evenodd" clip-rule="evenodd" d="M157.289 155.047L128.618 140.054L154.041 122.104L157.289 155.047ZM152.801 124.816L131.489 139.863L155.524 152.432L152.801 124.816Z" fill="#F3F6F8"/>
<path fill-rule="evenodd" clip-rule="evenodd" d="M59.1678 46.2321L30.4962 31.2383L55.9196 13.2892L59.1678 46.2321ZM54.6797 16.0007L33.3677 31.0472L57.4026 43.6163L54.6797 16.0007Z" fill="#F3F6F8"/>
<path fill-rule="evenodd" clip-rule="evenodd" d="M33.1678 171.232L4.4963 156.238L29.9197 138.289L33.1678 171.232ZM28.6797 141.001L7.36775 156.047L31.4026 168.616L28.6797 141.001Z" fill="#F3F6F8"/>
<path fill-rule="evenodd" clip-rule="evenodd" d="M200.319 108.9L217.397 136.381L186.38 138.924L200.319 108.9ZM188.825 137.219L214.826 135.087L200.511 112.05L188.825 137.219Z" fill="#F3F6F8"/>
<path fill-rule="evenodd" clip-rule="evenodd" d="M292 194.441L312.056 180.371L315.287 203.713L292 194.441ZM313.448 201.366L310.907 183.009L295.134 194.075L313.448 201.366Z" fill="#F3F6F8"/>
<path fill-rule="evenodd" clip-rule="evenodd" d="M375 148.441L395.056 134.371L398.287 157.713L375 148.441ZM396.448 155.366L393.907 137.009L378.134 148.075L396.448 155.366Z" fill="#F3F6F8"/>
<path fill-rule="evenodd" clip-rule="evenodd" d="M-26 76.4411L-5.94397 62.3709L-2.7128 85.713L-26 76.4411ZM-4.55196 83.3662L-7.09304 65.0093L-22.8657 76.0745L-4.55196 83.3662Z" fill="#F3F6F8"/>
<path fill-rule="evenodd" clip-rule="evenodd" d="M303 18.4411L323.056 4.3709L326.287 27.713L303 18.4411ZM324.448 25.3662L321.907 7.00934L306.134 18.0745L324.448 25.3662Z" fill="#F3F6F8"/>
<path fill-rule="evenodd" clip-rule="evenodd" d="M108.023 242.328L125.037 230.245L128.81 251.762L108.023 242.328ZM126.841 249.221L123.969 232.843L111.019 242.041L126.841 249.221Z" fill="#F3F6F8"/>
<path fill-rule="evenodd" clip-rule="evenodd" d="M295.506 145.698L282.939 151.868L289.11 164.435L301.677 158.264L295.506 145.698ZM280.932 151.183L288.425 166.443L303.684 158.95L296.192 143.69L280.932 151.183Z" fill="#F3F6F8"/>
<path fill-rule="evenodd" clip-rule="evenodd" d="M393.506 198.698L380.939 204.868L387.11 217.435L399.677 211.264L393.506 198.698ZM378.932 204.183L386.425 219.443L401.684 211.95L394.192 196.69L378.932 204.183Z" fill="#F3F6F8"/>
<path fill-rule="evenodd" clip-rule="evenodd" d="M179.488 210.201L170.443 220.887L181.129 229.932L190.174 219.246L179.488 210.201ZM168.329 221.062L181.304 232.046L192.288 219.07L179.312 208.087L168.329 221.062Z" fill="#F3F6F8"/>
<path fill-rule="evenodd" clip-rule="evenodd" d="M111.091 102.804L102.046 113.49L112.732 122.535L121.777 111.849L111.091 102.804ZM99.932 113.666L112.908 124.649L123.891 111.674L110.915 100.69L99.932 113.666Z" fill="#F3F6F8"/>
<path fill-rule="evenodd" clip-rule="evenodd" d="M282.777 87.8101L278.052 92.8956L283.137 97.6213L287.863 92.5358L282.777 87.8101ZM275.932 92.9734L283.215 99.7412L289.983 92.458L282.7 85.6902L275.932 92.9734Z" fill="#F3F6F8"/>
<path fill-rule="evenodd" clip-rule="evenodd" d="M341.777 269.81L337.052 274.896L342.137 279.621L346.863 274.536L341.777 269.81ZM334.932 274.973L342.215 281.741L348.983 274.458L341.7 267.69L334.932 274.973Z" fill="#F3F6F8"/>
<path fill-rule="evenodd" clip-rule="evenodd" d="M292.777 97.8101L288.052 102.896L293.137 107.621L297.863 102.536L292.777 97.8101ZM285.932 102.973L293.215 109.741L299.983 102.458L292.7 95.6902L285.932 102.973Z" fill="#F3F6F8"/>
<path fill-rule="evenodd" clip-rule="evenodd" d="M351.777 279.81L347.052 284.896L352.137 289.621L356.863 284.536L351.777 279.81ZM344.932 284.973L352.215 291.741L358.983 284.458L351.7 277.69L344.932 284.973Z" fill="#F3F6F8"/>
<path fill-rule="evenodd" clip-rule="evenodd" d="M92.7775 42.8101L88.0519 47.8956L93.1374 52.6213L97.863 47.5358L92.7775 42.8101ZM85.932 47.9734L93.2152 54.7412L99.9829 47.458L92.6998 40.6902L85.932 47.9734Z" fill="#F3F6F8"/>
<path fill-rule="evenodd" clip-rule="evenodd" d="M261.777 296.81L257.052 301.896L262.137 306.621L266.863 301.536L261.777 296.81ZM254.932 301.973L262.215 308.741L268.983 301.458L261.7 294.69L254.932 301.973Z" fill="#F3F6F8"/>
</svg>
