<svg width="324" height="125" viewBox="0 0 324 125" fill="none" xmlns="http://www.w3.org/2000/svg">
<g opacity="0.2">
<rect width="29.8256" height="9.94852" rx="4.97426" transform="matrix(-0.961912 -0.258728 0.256049 -0.970677 64.5571 27.4578)" fill="#26D07C"/>
<rect width="29.8256" height="9.94852" rx="4.97426" transform="matrix(-0.961912 -0.258728 0.256049 -0.970677 32.0186 86.9138)" fill="#26D07C"/>
<rect width="29.7682" height="9.96761" rx="4.98381" transform="matrix(-0.690897 0.726353 -0.716074 -0.694518 157.092 55.4436)" fill="#26D07C"/>
<rect width="19.1761" height="6.35517" rx="3.17758" transform="matrix(0.461329 0.887085 -0.883584 0.468547 234.159 29.7251)" fill="#26D07C"/>
<rect width="29.7682" height="9.96761" rx="4.98381" transform="matrix(-0.690897 0.726353 -0.716074 -0.694518 270.76 73.3784)" fill="#26D07C"/>
<rect width="16.4491" height="5.49716" rx="2.74858" transform="matrix(0.519576 -0.858531 0.848025 0.523312 61.9258 54.1216)" fill="#26D07C"/>
<rect width="16.4491" height="5.49716" rx="2.74858" transform="matrix(0.519576 -0.858531 0.848025 0.523312 29.3872 113.577)" fill="#26D07C"/>
<rect width="16.5177" height="5.47427" rx="2.73714" transform="matrix(-0.490723 -0.870869 0.867409 -0.498387 178.929 70.668)" fill="#26D07C"/>
<rect width="16.5177" height="5.47427" rx="2.73714" transform="matrix(-0.490723 -0.870869 0.867409 -0.498387 292.598 88.6025)" fill="#26D07C"/>
<rect width="21.7055" height="7.18233" rx="3.59117" transform="matrix(-0.564102 -0.824415 0.819628 -0.574777 105.272 63.5176)" fill="#26D07C"/>
<rect width="21.7055" height="7.18233" rx="3.59117" transform="matrix(-0.564102 -0.824415 0.819628 -0.574777 72.7329 122.973)" fill="#26D07C"/>
<rect width="21.5984" height="7.21778" rx="3.60889" transform="matrix(-0.992322 0.100226 -0.101183 -0.997491 208.041 36.905)" fill="#26D07C"/>
<rect width="21.5984" height="7.21778" rx="3.60889" transform="matrix(-0.992322 0.100226 -0.101183 -0.997491 321.709 54.8398)" fill="#26D07C"/>
</g>
</svg>
