<svg width="69" height="69" viewBox="0 0 69 69" fill="none" xmlns="http://www.w3.org/2000/svg">
<rect x="6.60893" y="7.24555" width="32.0043" height="45.114" rx="3.09517" transform="rotate(-4.98236 6.60893 7.24555)" fill="#26D07C" stroke="#2B3843" stroke-width="1.23807"/>
<rect x="10.0781" y="11.022" width="25.7512" height="37.4562" rx="3.09517" transform="rotate(-4.98236 10.0781 11.022)" fill="white"/>
<path d="M10.5254 16.1527L10.2394 12.8721C10.1503 11.8503 10.9064 10.9498 11.9282 10.8607L14.9757 10.595M36.1793 13.9163L35.8933 10.6356C35.8042 9.61382 34.9037 8.85772 33.8819 8.94679L30.6012 9.2328M12.9245 43.6724L13.1699 46.4866C13.259 47.5084 14.1595 48.2645 15.1813 48.1754L18.2287 47.9097M38.5784 41.4359L38.8237 44.2501C38.9128 45.2719 38.1567 46.1724 37.1349 46.2615L33.8543 46.5475" stroke="#2B3843" stroke-width="1.23807"/>
<path fill-rule="evenodd" clip-rule="evenodd" d="M20.6947 24.4143L20.8097 24.3728C21.2721 24.2155 21.7664 24.1617 22.3142 24.1859L22.484 24.1956C23.7263 24.2823 24.9023 24.7104 26.0215 25.241C26.0715 25.2728 26.9748 25.831 28.0765 25.4698L28.1683 25.4398C29.2695 25.082 30.3598 24.7942 31.7153 25.4206L31.7624 25.4429C33.1471 26.1161 34.8093 28.405 33.2638 31.4939L33.2122 31.5948C31.6295 34.6251 28.4175 34.9728 28.4175 34.9728C28.3962 34.978 28.0893 35.0514 27.2928 35.129L27.2145 35.1382C26.4471 35.2444 26.1338 35.7641 26.1338 35.7641L26.1323 35.7666C26.1 35.82 25.5593 36.7063 25.0366 37.0955L24.9916 37.127C24.4946 37.4519 24.4389 36.7016 24.4388 36.7013L24.4342 36.6303C24.4053 36.1319 24.4465 35.6119 24.0654 35.2279L24.0099 35.1762C23.7018 34.9104 23.2049 34.7963 22.8122 34.7623L22.7982 34.7607C22.4618 34.7156 19.6253 33.9387 18.5458 31.3746L18.5051 31.2754C17.6791 29.2161 17.8744 26.5632 19.6436 25.051C19.9819 24.7618 20.3287 24.5542 20.6947 24.4143Z" fill="#26D07C"/>
<mask id="mask0_3273_42246" style="mask-type:alpha" maskUnits="userSpaceOnUse" x="18" y="24" width="16" height="14">
<path fill-rule="evenodd" clip-rule="evenodd" d="M20.6947 24.4143L20.8097 24.3728C21.2721 24.2155 21.7664 24.1617 22.3142 24.1859L22.484 24.1956C23.7263 24.2823 24.9023 24.7104 26.0215 25.241C26.0715 25.2728 26.9748 25.831 28.0765 25.4698L28.1683 25.4398C29.2695 25.082 30.3598 24.7942 31.7153 25.4206L31.7624 25.4429C33.1471 26.1161 34.8093 28.405 33.2638 31.4939L33.2122 31.5948C31.6295 34.6251 28.4175 34.9728 28.4175 34.9728C28.3962 34.978 28.0893 35.0514 27.2928 35.129L27.2145 35.1382C26.4471 35.2444 26.1338 35.7641 26.1338 35.7641L26.1323 35.7666C26.1 35.82 25.5593 36.7063 25.0366 37.0955L24.9916 37.127C24.4946 37.4519 24.4389 36.7016 24.4388 36.7013L24.4342 36.6303C24.4053 36.1319 24.4465 35.6119 24.0654 35.2279L24.0099 35.1762C23.7018 34.9104 23.2049 34.7963 22.8122 34.7623L22.7982 34.7607C22.4618 34.7156 19.6253 33.9387 18.5458 31.3746L18.5051 31.2754C17.6791 29.2161 17.8744 26.5632 19.6436 25.051C19.9819 24.7618 20.3287 24.5542 20.6947 24.4143Z" fill="white"/>
</mask>
<g mask="url(#mask0_3273_42246)">
<path opacity="0.0535974" fill-rule="evenodd" clip-rule="evenodd" d="M27.5602 24.5155C27.5602 24.5155 33.3519 28.7175 27.4222 35.4074C21.4925 42.0973 36.8737 40.9732 36.8737 40.9732L36.962 33.7122L37.2814 23.4856L33.112 21.6137L27.5602 24.5155Z" fill="black"/>
</g>
<path fill-rule="evenodd" clip-rule="evenodd" d="M22.833 28.5544C22.9073 29.4064 22.2687 30.158 21.4062 30.2332C20.5441 30.3083 19.7849 29.6786 19.7106 28.8266C19.6364 27.9748 20.2752 27.2232 21.1373 27.1481C21.9998 27.0729 22.7588 27.7026 22.833 28.5544Z" fill="#FEFEFE"/>
<path fill-rule="evenodd" clip-rule="evenodd" d="M26.0157 28.9681C26.09 29.8201 25.4513 30.5716 24.5889 30.6467C23.7268 30.7219 22.9675 30.0923 22.8933 29.2403C22.819 28.3885 23.4578 27.6368 24.3199 27.5617C25.1824 27.4865 25.9414 28.1162 26.0157 28.9681Z" fill="#FEFEFE"/>
<path fill-rule="evenodd" clip-rule="evenodd" d="M22.1545 28.7858C22.1875 29.1643 21.9037 29.4984 21.5203 29.5319C21.1372 29.5653 20.7998 29.2853 20.7668 28.9068C20.7338 28.5282 21.0176 28.1941 21.4008 28.1607C21.7842 28.1273 22.1215 28.4072 22.1545 28.7858Z" fill="#050101"/>
<path fill-rule="evenodd" clip-rule="evenodd" d="M25.3342 29.1998C25.3672 29.5784 25.0834 29.9125 24.7 29.9459C24.3169 29.9793 23.9795 29.6994 23.9465 29.3208C23.9135 28.9423 24.1973 28.6082 24.5805 28.5748C24.9638 28.5414 25.3012 28.8213 25.3342 29.1998Z" fill="#050101"/>
<path fill-rule="evenodd" clip-rule="evenodd" d="M14.5687 19.5597L13.2985 21.1566L18.0263 24.1368L18.3714 23.668L14.5687 19.5597Z" fill="#26D07C"/>
<path fill-rule="evenodd" clip-rule="evenodd" d="M13.5421 24.1396L13.235 25.6753L16.7966 25.8268L16.9378 25.3169L13.5421 24.1396Z" fill="#26D07C"/>
<rect x="36.4549" y="12.5185" width="32.0043" height="45.114" rx="3.09517" transform="rotate(23.4838 36.4549 12.5185)" fill="#26D07C" stroke="#2B3843" stroke-width="1.23807"/>
<rect x="37.7031" y="17.4912" width="25.7512" height="37.4562" rx="3.09517" transform="rotate(23.4838 37.7031 17.4912)" fill="white"/>
<path d="M35.6508 22.2149L36.9631 19.1945C37.3718 18.2538 38.4657 17.8225 39.4064 18.2312L42.2121 19.4502M59.2691 32.4765L60.5814 29.4561C60.9901 28.5154 60.5588 27.4215 59.6181 27.0128L56.5977 25.7005M24.6429 47.5508L23.5172 50.1418C23.1085 51.0825 23.5398 52.1764 24.4805 52.5851L27.2861 53.8041M48.2612 57.8124L47.1355 60.4034C46.7268 61.3441 45.6329 61.7753 44.6922 61.3666L41.6718 60.0543" stroke="#2B3843" stroke-width="1.23807"/>
<path fill-rule="evenodd" clip-rule="evenodd" d="M41.413 33.7243L41.5411 33.7437C42.0516 33.8308 42.5396 34.0306 43.038 34.3299L43.1914 34.4248C44.3056 35.1336 45.1855 36.127 45.9606 37.1873C45.9912 37.2421 46.5511 38.219 47.7606 38.4392L47.8613 38.4576C49.0687 38.6807 50.2306 38.9634 51.1775 40.2324L51.2101 40.277C52.1607 41.6045 52.5533 44.5782 49.5514 46.6766L49.4523 46.7445C46.4454 48.7694 43.2754 47.47 43.2754 47.47C43.2529 47.4642 42.9298 47.3775 42.148 47.0473L42.0704 47.0163C41.3014 46.7274 40.7467 47.0535 40.7467 47.0535L40.744 47.0551C40.6869 47.0885 39.7349 47.6414 39.051 47.74L38.9931 47.7467C38.3656 47.7983 38.6929 47.0708 38.693 47.0705L38.7245 47.0019C38.9495 46.5227 39.2507 46.0588 39.0896 45.5082L39.064 45.432C38.9111 45.0285 38.5055 44.671 38.1566 44.4408L38.1445 44.4323C37.8536 44.2201 35.6021 42.0623 35.8919 39.1265L35.904 39.0134C36.1748 36.6764 37.6977 34.3021 40.1113 33.7866C40.5728 33.688 41.001 33.6697 41.413 33.7243Z" fill="#26D07C"/>
<mask id="mask1_3273_42246" style="mask-type:alpha" maskUnits="userSpaceOnUse" x="35" y="33" width="17" height="15">
<path fill-rule="evenodd" clip-rule="evenodd" d="M41.413 33.7243L41.5411 33.7437C42.0516 33.8308 42.5396 34.0306 43.038 34.3299L43.1914 34.4248C44.3056 35.1336 45.1855 36.127 45.9606 37.1873C45.9912 37.2421 46.5511 38.219 47.7606 38.4392L47.8613 38.4576C49.0687 38.6807 50.2306 38.9634 51.1775 40.2324L51.2101 40.277C52.1607 41.6045 52.5533 44.5782 49.5514 46.6766L49.4523 46.7445C46.4454 48.7694 43.2754 47.47 43.2754 47.47C43.2529 47.4642 42.9298 47.3775 42.148 47.0473L42.0704 47.0163C41.3014 46.7274 40.7467 47.0535 40.7467 47.0535L40.744 47.0551C40.6869 47.0885 39.7349 47.6414 39.051 47.74L38.9931 47.7467C38.3656 47.7983 38.6929 47.0708 38.693 47.0705L38.7245 47.0019C38.9495 46.5227 39.2507 46.0588 39.0896 45.5082L39.064 45.432C38.9111 45.0285 38.5055 44.671 38.1566 44.4408L38.1445 44.4323C37.8536 44.2201 35.6021 42.0623 35.8919 39.1265L35.904 39.0134C36.1748 36.6764 37.6977 34.3021 40.1113 33.7866C40.5728 33.688 41.001 33.6697 41.413 33.7243Z" fill="white"/>
</mask>
<g mask="url(#mask1_3273_42246)">
<path opacity="0.0535974" fill-rule="evenodd" clip-rule="evenodd" d="M47.7631 37.289C47.7631 37.289 51.0382 44.1333 42.1294 47.3725C33.2206 50.6118 48.1269 57.3379 48.1269 57.3379L51.8791 50.614L57.3456 41.2423L54.405 37.3901L47.7631 37.289Z" fill="black"/>
</g>
<path fill-rule="evenodd" clip-rule="evenodd" d="M41.312 38.6627C40.9506 39.4945 39.9754 39.8723 39.1334 39.5065C38.2918 39.1408 37.9024 38.1701 38.2637 37.3383C38.625 36.5068 39.6004 36.129 40.442 36.4947C41.284 36.8605 41.6733 37.8312 41.312 38.6627Z" fill="#FEFEFE"/>
<path fill-rule="evenodd" clip-rule="evenodd" d="M44.0707 40.6565C43.7093 41.4883 42.7342 41.866 41.8922 41.5001C41.0506 41.1345 40.6611 40.1639 41.0225 39.3321C41.3838 38.5005 42.3592 38.1227 43.2008 38.4883C44.0428 38.8541 44.432 39.8249 44.0707 40.6565Z" fill="#FEFEFE"/>
<path fill-rule="evenodd" clip-rule="evenodd" d="M40.562 38.5353C40.4015 38.9048 39.968 39.0728 39.5938 38.9102C39.2197 38.7477 39.0467 38.3162 39.2073 37.9466C39.3678 37.5771 39.8013 37.4091 40.1754 37.5716C40.5496 37.7342 40.7226 38.1657 40.562 38.5353Z" fill="#050101"/>
<path fill-rule="evenodd" clip-rule="evenodd" d="M43.3208 40.5299C43.1603 40.8994 42.7268 41.0674 42.3526 40.9048C41.9785 40.7423 41.8055 40.3108 41.966 39.9413C42.1266 39.5717 42.5601 39.4037 42.9341 39.5662C43.3084 39.7288 43.4814 40.1603 43.3208 40.5299Z" fill="#050101"/>
<path fill-rule="evenodd" clip-rule="evenodd" d="M38.1556 26.1011L36.1644 26.9478L39.0653 32.1153L39.624 31.8528L38.1556 26.1011Z" fill="#26D07C"/>
<path fill-rule="evenodd" clip-rule="evenodd" d="M34.8823 29.8512L33.8199 31.1275L37.0633 33.0689L37.4527 32.6649L34.8823 29.8512Z" fill="#26D07C"/>
</svg>
